<?xml version="1.0" standalone="no"?>
<!DOCTYPE svg PUBLIC "-//W3C//DTD SVG 1.1//EN" "http://www.w3.org/Graphics/SVG/1.1/DTD/svg11.dtd" >
<svg xmlns="http://www.w3.org/2000/svg" xmlns:xlink="http://www.w3.org/1999/xlink" version="1.1">
<metadata>
Created by FontForge 20170731 at Tue Mar 24 10:47:43 2015
 By Aleksey,,,
Copyright (c) 2015 by Typetype. Designer Ivan Gladkikh, technical designers Maria Mizeritskaya, Nadyr Rakhimov. All rights reserved.
</metadata>
<defs>
<font id="TTChocolates-Bold" horiz-adv-x="530" >
  <font-face 
    font-family="TT Chocolates"
    font-weight="700"
    font-stretch="normal"
    units-per-em="1000"
    panose-1="2 0 8 3 0 0 0 2 0 2"
    ascent="800"
    descent="-200"
    x-height="410"
    cap-height="680"
    bbox="-70 -310 1130 970"
    underline-thickness="20"
    underline-position="-173"
    unicode-range="U+000D-F6D4"
  />
<missing-glyph horiz-adv-x="0" 
 />
    <glyph glyph-name=".notdef" horiz-adv-x="0" 
 />
    <glyph glyph-name=".null" horiz-adv-x="0" 
 />
    <glyph glyph-name="nonmarkingreturn" horiz-adv-x="333" 
 />
    <glyph glyph-name="NULL" horiz-adv-x="0" 
 />
    <glyph glyph-name="NULL" horiz-adv-x="0" 
 />
    <glyph glyph-name="CR" unicode="&#xd;" horiz-adv-x="0" 
 />
    <glyph glyph-name="space" unicode=" " horiz-adv-x="200" 
 />
    <glyph glyph-name="exclam" unicode="!" horiz-adv-x="270" 
d="M85 220l-20 460h140l-20 -460h-100zM200 55q0 -26 -19.5 -45.5t-45.5 -19.5t-45.5 19.5t-19.5 45.5t19.5 45.5t45.5 19.5t45.5 -19.5t19.5 -45.5z" />
    <glyph glyph-name="quotedbl" unicode="&#x22;" horiz-adv-x="355" 
d="M225 460l-20 220h110l-20 -220h-70zM60 460l-20 220h110l-20 -220h-70z" />
    <glyph glyph-name="numbersign" unicode="#" horiz-adv-x="645" 
d="M170 0h-120l55 170h-95l35 110h95l40 120h-95l35 110h95l55 170h120l-55 -170h85l55 170h120l-55 -170h95l-35 -110h-95l-40 -120h95l-35 -110h-95l-55 -170h-120l55 170h-85zM300 400l-40 -120h85l40 120h-85z" />
    <glyph glyph-name="dollar" unicode="$" horiz-adv-x="545" 
d="M340 -120h-120v104q-38 6 -72 22t-55.5 35t-37.5 37t-23 30l-7 12l90 65q2 -4 6.5 -10.5t18.5 -22.5t30 -28.5t40.5 -23t49.5 -10.5q51 0 85.5 31.5t34.5 73.5q0 33 -32 57.5t-77.5 44t-91 43.5t-77.5 67t-32 103q0 61 43.5 110.5t106.5 69.5v110h120v-105
q47 -11 85.5 -38.5t54.5 -49.5l15 -22l-90 -65q-6 8 -16 19.5t-38.5 31t-55.5 19.5q-44 0 -72 -26t-28 -64q0 -33 32 -57.5t77.5 -44t91 -43.5t77.5 -67t32 -103q0 -69 -45.5 -120.5t-119.5 -75.5v-109z" />
    <glyph glyph-name="percent" unicode="%" horiz-adv-x="715" 
d="M480 680h125l-370 -680h-125zM330 545q0 -64 -45.5 -109.5t-109.5 -45.5t-109.5 45.5t-45.5 109.5t45.5 109.5t109.5 45.5t109.5 -45.5t45.5 -109.5zM230 545q0 29 -16 47t-39 18t-39 -18t-16 -47t16 -47t39 -18t39 18t16 47zM695 135q0 -64 -45.5 -109.5t-109.5 -45.5
t-109.5 45.5t-45.5 109.5t45.5 109.5t109.5 45.5t109.5 -45.5t45.5 -109.5zM595 135q0 29 -16 47t-39 18t-39 -18t-16 -47t16 -47t39 -18t39 18t16 47z" />
    <glyph glyph-name="ampersand" unicode="&#x26;" horiz-adv-x="655" 
d="M335 370v-10l115 -130q25 45 25 100h110q0 -51 -15 -97.5t-30 -66.5l-15 -21l130 -145h-150l-50 55h-10l-8 -8t-22.5 -18t-37.5 -23t-51.5 -18t-65.5 -8q-103 0 -166.5 57.5t-63.5 142.5q0 36 14.5 69t35 54t41 37t35.5 23l14 7v10q-13 14 -26 32.5t-26 53.5t-13 69
q0 68 50.5 116.5t124.5 48.5t124.5 -48.5t50.5 -116.5q0 -29 -12.5 -57t-30 -46.5t-35 -33t-29.5 -21.5zM265 435q3 2 8 5.5t18 14t23 21.5t18 27.5t8 31.5q0 23 -19 41.5t-41 18.5t-41 -18.5t-19 -41.5q0 -24 11 -49t23 -38zM380 140l-140 160q-4 -2 -10 -6t-21.5 -16
t-27.5 -25.5t-21.5 -33t-9.5 -39.5q0 -39 31 -67t79 -28q31 0 61 13.5t45 27.5z" />
    <glyph glyph-name="quotesingle" unicode="'" horiz-adv-x="190" 
d="M150 680l-20 -220h-70l-20 220h110z" />
    <glyph glyph-name="parenleft" unicode="(" horiz-adv-x="360" 
d="M175 250q0 -67 18 -137t43.5 -122t51.5 -94.5t44 -64.5l18 -22l-75 -60q-9 8 -23.5 23.5t-51.5 66t-65.5 105t-51.5 138t-23 167.5t22 166.5t54 140t63.5 103t53.5 68.5l22 22l75 -60q-7 -8 -19 -23t-42 -62.5t-53 -96.5t-42 -120t-19 -138z" />
    <glyph glyph-name="parenright" unicode=")" horiz-adv-x="360" 
d="M185 250q0 67 -18 137t-43.5 122t-51.5 94.5t-44 64.5l-18 22l75 60q9 -8 23.5 -23.5t51.5 -66t65.5 -105t51.5 -138t23 -167.5t-22 -166.5t-53.5 -140t-63.5 -103t-54 -68.5l-22 -22l-75 60q7 8 19 23t42 62.5t53 96.5t42 120t19 138z" />
    <glyph glyph-name="asterisk" unicode="*" horiz-adv-x="340" 
d="M220 415l-50 70l-50 -70l-60 40l55 70l-85 30l22 64l83 -29v90h70v-90l83 29l22 -64l-85 -30l55 -70z" />
    <glyph glyph-name="plus" unicode="+" horiz-adv-x="420" 
d="M390 220h-130v-145h-100v145h-130v100h130v145h100v-145h130v-100z" />
    <glyph glyph-name="comma" unicode="," horiz-adv-x="200" 
d="M165 55q0 -11 -5 -25t-10 -22l-5 -8l-60 -105h-45l40 105q-5 1 -12.5 4t-20 17t-12.5 34q0 26 19.5 45.5t45.5 19.5t45.5 -19.5t19.5 -45.5z" />
    <glyph glyph-name="hyphen" unicode="-" horiz-adv-x="400" 
d="M370 220h-340v100h340v-100z" />
    <glyph glyph-name="period" unicode="." horiz-adv-x="200" 
d="M165 55q0 -26 -19.5 -45.5t-45.5 -19.5t-45.5 19.5t-19.5 45.5t19.5 45.5t45.5 19.5t45.5 -19.5t19.5 -45.5z" />
    <glyph glyph-name="slash" unicode="/" horiz-adv-x="440" 
d="M420 680l-270 -680h-130l270 680h130z" />
    <glyph glyph-name="zero" unicode="0" horiz-adv-x="630" 
d="M315 -20q-108 0 -184 96t-76 264t76 264t184 96t184 -96t76 -264t-76 -264t-184 -96zM315 90q55 0 95 62.5t40 187.5t-40 187.5t-95 62.5t-95 -62.5t-40 -187.5t40 -187.5t95 -62.5z" />
    <glyph glyph-name="one" unicode="1" horiz-adv-x="420" 
d="M385 0h-310v110h95v410h-10l-90 -50l-50 85l250 145h20v-590h95v-110z" />
    <glyph glyph-name="two" unicode="2" horiz-adv-x="515" 
d="M355 480q0 45 -32.5 77.5t-77.5 32.5q-24 0 -46 -9t-36.5 -21t-26 -24.5t-16.5 -21.5l-5 -9l-90 65q3 5 8 14t25.5 31.5t44.5 39.5t65 31t87 14q93 0 159 -65t66 -155q0 -53 -26 -109.5t-62.5 -99.5t-73 -78.5t-62.5 -54.5l-26 -18v-10h250v-110h-445v80q13 9 34.5 25
t77 63.5t97.5 93.5t76.5 107t34.5 111z" />
    <glyph glyph-name="three" unicode="3" horiz-adv-x="535" 
d="M375 200q0 46 -34 78t-86 32h-105v80l160 170v10h-250v110h420v-80l-170 -180v-10q8 -1 20.5 -4t45.5 -18t58 -36t45.5 -61.5t20.5 -90.5q0 -91 -67.5 -155.5t-167.5 -64.5q-48 0 -90.5 14.5t-69.5 35t-47.5 41t-29.5 35.5l-8 14l90 65q2 -4 6.5 -10.5t18.5 -22.5
t30 -28.5t40.5 -23t49.5 -10.5q52 0 86 32t34 78z" />
    <glyph glyph-name="four" unicode="4" horiz-adv-x="565" 
d="M450 250h80v-110h-80v-140h-120v140h-310v80l360 480h70v-450zM330 250v190h-10l-135 -180v-10h145z" />
    <glyph glyph-name="five" unicode="5" horiz-adv-x="550" 
d="M280 430q100 0 167.5 -65.5t67.5 -159.5t-67.5 -159.5t-167.5 -65.5q-48 0 -90.5 14.5t-69.5 35t-47.5 41t-28.5 35.5l-9 14l90 65q2 -4 6.5 -10.5t18.5 -22.5t30 -28.5t40.5 -23t49.5 -10.5q52 0 86 33t34 82t-34 82t-86 33q-22 0 -49.5 -9t-44.5 -17l-16 -9l-80 50v345
h395v-110h-275v-160q40 20 80 20z" />
    <glyph glyph-name="six" unicode="6" horiz-adv-x="560" 
d="M415 680l-170 -255h10q30 25 70 25q77 0 138.5 -67.5t61.5 -162.5q0 -101 -69.5 -170.5t-170.5 -69.5t-170.5 69.5t-69.5 170.5q0 49 17.5 99t35.5 75l17 26l170 260h130zM400 220q0 59 -32.5 94.5t-82.5 35.5t-82.5 -35.5t-32.5 -94.5t32.5 -94.5t82.5 -35.5t82.5 35.5
t32.5 94.5z" />
    <glyph glyph-name="seven" unicode="7" horiz-adv-x="480" 
d="M25 680h430v-80l-225 -600h-125l210 560v10h-290v110z" />
    <glyph glyph-name="eight" unicode="8" horiz-adv-x="580" 
d="M290 590q-40 0 -67.5 -25.5t-27.5 -59.5t27.5 -59.5t67.5 -25.5t67.5 25.5t27.5 59.5t-27.5 59.5t-67.5 25.5zM290 310q-52 0 -86 -32t-34 -78t34 -78t86 -32t86 32t34 78t-34 78t-86 32zM290 700q98 0 159 -53t61 -127q0 -31 -11.5 -57.5t-27.5 -43t-32 -28t-27 -16.5
l-12 -5v-10q5 -1 14.5 -4t32.5 -16t41 -30.5t32.5 -50.5t14.5 -74q0 -82 -70 -143.5t-175 -61.5t-175 61.5t-70 143.5q0 41 14 74t33.5 51t39.5 30t34 16l14 4v10q-4 2 -11.5 5t-26.5 16t-33.5 28.5t-26.5 42.5t-12 58q0 74 61 127t159 53z" />
    <glyph glyph-name="nine" unicode="9" horiz-adv-x="561" 
d="M146 0l170 255h-10q-30 -25 -70 -25q-77 0 -138.5 67.5t-61.5 162.5q0 101 69.5 170.5t170.5 69.5t170.5 -69.5t69.5 -170.5q0 -49 -17.5 -99t-34.5 -75l-18 -26l-170 -260h-130zM161 460q0 -59 32.5 -94.5t82.5 -35.5t82.5 35.5t32.5 94.5t-32.5 94.5t-82.5 35.5
t-82.5 -35.5t-32.5 -94.5z" />
    <glyph glyph-name="colon" unicode=":" horiz-adv-x="200" 
d="M165 55q0 -26 -19.5 -45.5t-45.5 -19.5t-45.5 19.5t-19.5 45.5t19.5 45.5t45.5 19.5t45.5 -19.5t19.5 -45.5zM165 355q0 -26 -19.5 -45.5t-45.5 -19.5t-45.5 19.5t-19.5 45.5t19.5 45.5t45.5 19.5t45.5 -19.5t19.5 -45.5z" />
    <glyph glyph-name="semicolon" unicode=";" horiz-adv-x="200" 
d="M165 355q0 -26 -19.5 -45.5t-45.5 -19.5t-45.5 19.5t-19.5 45.5t19.5 45.5t45.5 19.5t45.5 -19.5t19.5 -45.5zM165 55q0 -11 -5 -25t-10 -22l-5 -8l-60 -105h-45l40 105q-5 1 -12.5 4t-20 17t-12.5 34q0 26 19.5 45.5t45.5 19.5t45.5 -19.5t19.5 -45.5z" />
    <glyph glyph-name="less" unicode="&#x3c;" horiz-adv-x="410" 
d="M170 200l195 -80v-110l-330 145v100l330 145v-110l-195 -80v-10z" />
    <glyph glyph-name="equal" unicode="=" horiz-adv-x="410" 
d="M370 120h-330v100h330v-100zM370 310h-330v100h330v-100z" />
    <glyph glyph-name="greater" unicode="&#x3e;" horiz-adv-x="410" 
d="M45 120l195 80v10l-195 80v110l330 -145v-100l-330 -145v110z" />
    <glyph glyph-name="question" unicode="?" horiz-adv-x="490" 
d="M295 55q0 -26 -19.5 -45.5t-45.5 -19.5t-45.5 19.5t-19.5 45.5t19.5 45.5t45.5 19.5t45.5 -19.5t19.5 -45.5zM330 490q0 42 -30 71t-75 29q-33 0 -64.5 -20t-46.5 -40l-14 -20l-90 65q3 5 8.5 13.5t26 30t44.5 38t63.5 30t82.5 13.5q92 0 156 -59t64 -136
q0 -40 -17.5 -74t-42.5 -58t-50 -46.5t-42.5 -49.5t-17.5 -57h-110q0 42 16 76.5t38.5 58t45.5 44t39 44t16 47.5z" />
    <glyph glyph-name="at" unicode="@" horiz-adv-x="930" 
d="M685 100q-40 0 -70 15t-40 30l-10 15h-10q-1 -2 -3.5 -6.5t-12 -14.5t-21 -18t-31.5 -14.5t-42 -6.5q-66 0 -113 53t-47 137t47 137t113 53q20 0 37.5 -10t25.5 -20l7 -10h10v20h110v-210q0 -19 15.5 -34.5t34.5 -15.5q26 0 50.5 37.5t24.5 102.5q0 104 -85 182t-210 78
q-121 0 -208 -90t-87 -220t87 -220t208 -90q44 0 89 10t68 20l23 10l40 -90q-10 -6 -28.5 -14t-76 -22t-115.5 -14q-173 0 -291.5 119t-118.5 291t118.5 291t291.5 119q180 0 295 -105t115 -255q0 -108 -56 -174t-134 -66zM400 290q0 -43 18.5 -66.5t46.5 -23.5
q23 0 41.5 19t18.5 41v60q0 22 -18.5 41t-41.5 19q-28 0 -46.5 -23.5t-18.5 -66.5z" />
    <glyph glyph-name="A" unicode="A" horiz-adv-x="640" 
d="M325 720l295 -720h-130l-40 100h-261l-39 -100h-130l295 720h10zM315 420l-80 -210h170l-80 210h-10z" />
    <glyph glyph-name="B" unicode="B" horiz-adv-x="600" 
d="M85 0v680h215q101 0 160.5 -49.5t59.5 -120.5q0 -31 -11.5 -56t-27.5 -39t-32 -24t-27 -13l-12 -3v-10q6 -1 16 -3.5t36 -14.5t46 -29t36 -49.5t16 -73.5q0 -79 -69 -137t-181 -58h-225zM205 110h105q55 0 87.5 28t32.5 72t-32.5 72t-87.5 28h-105v-200zM205 420h95
q43 0 69 22t26 53t-26 53t-69 22h-95v-150z" />
    <glyph glyph-name="C" unicode="C" horiz-adv-x="710" 
d="M395 700q56 0 106.5 -16.5t82.5 -40t56 -47t34 -40.5l11 -16l-105 -60q-3 4 -8 11.5t-22.5 26.5t-37.5 33.5t-51.5 26.5t-65.5 12q-92 0 -161 -73.5t-69 -176.5t69 -176.5t161 -73.5q36 0 69.5 13t55.5 31t38.5 36.5t23.5 31.5l8 13l105 -60q-4 -7 -11 -19t-34 -42
t-58.5 -53t-84.5 -42t-112 -19q-147 0 -251 105t-104 255t104 255t251 105z" />
    <glyph glyph-name="D" unicode="D" horiz-adv-x="670" 
d="M285 570h-80v-460h80q87 0 153.5 68.5t66.5 161.5t-66.5 161.5t-153.5 68.5zM85 680h200q142 0 243.5 -100.5t101.5 -239.5t-101.5 -239.5t-243.5 -100.5h-200v680z" />
    <glyph glyph-name="E" unicode="E" 
d="M85 0v680h395v-110h-275v-170h195v-110h-195v-180h285v-110h-405z" />
    <glyph glyph-name="F" unicode="F" horiz-adv-x="515" 
d="M85 0v680h405v-110h-285v-215h205v-110h-205v-245h-120z" />
    <glyph glyph-name="G" unicode="G" horiz-adv-x="755" 
d="M395 -20q-147 0 -251 105t-104 255t104 255t251 105q55 0 104 -16t81 -39t55.5 -45.5t34.5 -38.5l10 -16l-100 -60q-3 4 -8 11t-22.5 25.5t-37.5 32t-51.5 25t-65.5 11.5q-92 0 -161 -73.5t-69 -176.5t69 -176.5t161 -73.5q50 0 89.5 19.5t59 47.5t32.5 56t16 47l3 20
h120v-300h-20l-70 100h-10q-2 -4 -7 -11t-24 -24t-42 -30t-62.5 -24t-84.5 -11z" />
    <glyph glyph-name="H" unicode="H" horiz-adv-x="680" 
d="M475 0v260h-270v-260h-120v680h120v-310h270v310h120v-680h-120z" />
    <glyph glyph-name="I" unicode="I" horiz-adv-x="290" 
d="M85 0v680h120v-680h-120z" />
    <glyph glyph-name="J" unicode="J" horiz-adv-x="455" 
d="M20 35l50 91q40 -36 85 -36q42 0 71 32t29 83v365h-175v110h295v-475q0 -100 -59.5 -162.5t-150.5 -62.5q-42 0 -78.5 14t-51.5 28z" />
    <glyph glyph-name="K" unicode="K" horiz-adv-x="595" 
d="M205 680v-680h-120v680h120zM560 680l-205 -320l225 -360h-130l-220 360l200 320h130z" />
    <glyph glyph-name="L" unicode="L" horiz-adv-x="500" 
d="M205 110h265v-110h-385v680h120v-570z" />
    <glyph glyph-name="M" unicode="M" horiz-adv-x="820" 
d="M410 150l-195 240h-10v-390h-120v700h20l305 -375l305 375h20v-700h-120v390h-10z" />
    <glyph glyph-name="N" unicode="N" horiz-adv-x="680" 
d="M465 280h10v400h120v-700h-20l-360 420h-10v-400h-120v700h20z" />
    <glyph glyph-name="O" unicode="O" horiz-adv-x="790" 
d="M40 340q0 150 104 255t251 105t251 -105t104 -255t-104 -255t-251 -105t-251 105t-104 255zM625 340q0 103 -69 176.5t-161 73.5t-161 -73.5t-69 -176.5t69 -176.5t161 -73.5t161 73.5t69 176.5z" />
    <glyph glyph-name="P" unicode="P" horiz-adv-x="585" 
d="M205 310h65q66 0 108 38t42 92t-42 92t-108 38h-65v-260zM545 440q0 -100 -77 -170t-198 -70h-65v-200h-120v680h185q121 0 198 -70t77 -170z" />
    <glyph glyph-name="Q" unicode="Q" horiz-adv-x="800" 
d="M750 340q0 -69 -24 -130t-48 -88l-23 -27l115 -175h-140l-65 105q-8 -5 -22.5 -12.5t-59 -20t-88.5 -12.5q-147 0 -251 105t-104 255t104 255t251 105t251 -105t104 -255zM165 340q0 -103 69 -176.5t161 -73.5t161 73.5t69 176.5t-69 176.5t-161 73.5t-161 -73.5
t-69 -176.5z" />
    <glyph glyph-name="R" unicode="R" horiz-adv-x="625" 
d="M450 285v-10l155 -275h-130l-140 250h-130v-250h-120v680h230q110 0 180 -63t70 -152q0 -35 -12 -66.5t-28.5 -51.5t-33.5 -34.5t-29 -21.5t-12 -6zM205 360h110q55 0 90 31t35 74t-35 74t-90 31h-110v-210z" />
    <glyph glyph-name="S" unicode="S" horiz-adv-x="545" 
d="M285 700q39 0 75 -12t59.5 -29t41.5 -33.5t26 -28.5l8 -12l-90 -65q-6 8 -16 19.5t-38.5 31t-55.5 19.5q-44 0 -72 -26t-28 -64q0 -33 32 -57.5t77.5 -44t91 -43.5t77.5 -67t32 -103q0 -81 -68 -143t-167 -62q-48 0 -90.5 14.5t-69.5 35t-47.5 41t-28.5 35.5l-9 14l90 65
q2 -4 6.5 -10.5t18.5 -22.5t30 -28.5t40.5 -23t49.5 -10.5q51 0 85.5 31.5t34.5 73.5q0 33 -32 57.5t-77.5 44t-91 43.5t-77.5 67t-32 103q0 73 63.5 131.5t151.5 58.5z" />
    <glyph glyph-name="T" unicode="T" horiz-adv-x="520" 
d="M495 570h-175v-570h-120v570h-175v110h470v-110z" />
    <glyph glyph-name="U" unicode="U" horiz-adv-x="660" 
d="M200 680v-445q0 -63 38 -104t92 -41t92 41t38 104v445h120v-445q0 -108 -72.5 -181.5t-177.5 -73.5t-177.5 73.5t-72.5 181.5v445h120z" />
    <glyph glyph-name="V" unicode="V" horiz-adv-x="620" 
d="M305 -40l-285 720h130l155 -410h10l155 410h130l-285 -720h-10z" />
    <glyph glyph-name="W" unicode="W" horiz-adv-x="880" 
d="M605 -35l-165 435l-165 -435h-10l-245 715h130l125 -380h10l155 410l155 -410h10l125 380h130l-245 -715h-10z" />
    <glyph glyph-name="X" unicode="X" horiz-adv-x="610" 
d="M455 0l-145 255h-10l-145 -255h-135l205 355l-180 325h130l125 -225h10l125 225h130l-180 -325l205 -355h-135z" />
    <glyph glyph-name="Y" unicode="Y" horiz-adv-x="580" 
d="M230 240l-220 440h135l140 -285h10l140 285h135l-220 -440v-240h-120v240z" />
    <glyph glyph-name="Z" unicode="Z" horiz-adv-x="535" 
d="M500 0h-475v20l295 540v10h-270v110h460v-20l-295 -540v-10h285v-110z" />
    <glyph glyph-name="bracketleft" unicode="[" horiz-adv-x="330" 
d="M210 -105h100v-110h-220v935h220v-110h-100v-715z" />
    <glyph glyph-name="backslash" unicode="\" horiz-adv-x="440" 
d="M290 0l-270 680h130l270 -680h-130z" />
    <glyph glyph-name="bracketright" unicode="]" horiz-adv-x="330" 
d="M20 -105h100v715h-100v110h220v-935h-220v110z" />
    <glyph glyph-name="asciicircum" unicode="^" horiz-adv-x="430" 
d="M40 380l125 300h100l125 -300h-110l-60 150h-10l-60 -150h-110z" />
    <glyph glyph-name="underscore" unicode="_" horiz-adv-x="358" 
d="M349 -200h-340v100h340v-100z" />
    <glyph glyph-name="grave" unicode="`" horiz-adv-x="240" 
d="M180 530l-150 65l40 85l140 -85z" />
    <glyph glyph-name="a" unicode="a" horiz-adv-x="465" 
d="M300 155q-45 5 -105 5q-25 0 -40 -12t-15 -28t16.5 -28t48.5 -12q21 0 38.5 7.5t27.5 19t17 22.5t10 19zM215 430q82 0 138.5 -55.5t56.5 -134.5v-240h-110v40h-10q-1 -2 -4 -6.5t-13.5 -14.5t-22.5 -18t-32.5 -14.5t-42.5 -6.5q-67 0 -108.5 39.5t-41.5 100.5
q0 62 46 101t124 39q27 0 53 -5t39 -10l13 -5q0 37 -25.5 63.5t-59.5 26.5q-22 0 -43.5 -9t-31.5 -17l-10 -9l-65 75q6 7 17 17t50 26.5t83 16.5z" />
    <glyph glyph-name="b" unicode="b" horiz-adv-x="535" 
d="M180 225v-40q0 -41 32 -73t73 -32q43 0 74 35t31 90t-31 90t-74 35q-41 0 -73 -32t-32 -73zM180 40v-40h-110v680h110v-310h10q4 7 12.5 17t40.5 26.5t72 16.5q74 0 132 -65t58 -160t-58 -160t-132 -65q-25 0 -47 6t-36 15t-24 18t-14 15l-4 6h-10z" />
    <glyph glyph-name="c" unicode="c" horiz-adv-x="475" 
d="M260 80q31 0 56 17.5t34 34.5l10 18l95 -50q-2 -5 -6.5 -13t-21.5 -28.5t-37.5 -36.5t-55.5 -29t-74 -13q-94 0 -159.5 65.5t-65.5 159.5t65.5 159.5t159.5 65.5q38 0 71.5 -11.5t54 -27.5t36 -32t22.5 -27l6 -12l-95 -50q-1 2 -3.5 6.5t-11 14.5t-19 18t-27 14.5
t-34.5 6.5q-42 0 -76 -37t-34 -88t34 -88t76 -37z" />
    <glyph glyph-name="d" unicode="d" horiz-adv-x="540" 
d="M360 185v40q0 41 -32 73t-73 32q-43 0 -74 -35t-31 -90t31 -90t74 -35q41 0 73 32t32 73zM360 0v40h-10q-4 -7 -12.5 -17t-40.5 -26.5t-72 -16.5q-74 0 -132 65t-58 160t58 160t132 65q25 0 47 -6t36 -15t24 -18t14 -15l4 -6h10v310h110v-680h-110z" />
    <glyph glyph-name="e" unicode="e" horiz-adv-x="505" 
d="M430 165h-275q12 -36 40.5 -60.5t64.5 -24.5q31 0 56 15t34 30l10 15l95 -50q-2 -4 -6.5 -11.5t-21.5 -26.5t-37.5 -33.5t-55.5 -26.5t-74 -12q-94 0 -159.5 65.5t-65.5 159.5t65.5 159.5t159.5 65.5q90 0 152.5 -65t62.5 -155zM260 330q-67 0 -100 -75h200
q-33 75 -100 75z" />
    <glyph glyph-name="f" unicode="f" horiz-adv-x="320" 
d="M20 310v100h65v145q0 70 45.5 117.5t109.5 47.5q24 0 46.5 -6t33.5 -12l10 -7l-35 -95q-20 20 -45 20q-23 0 -39 -18t-16 -47v-145h105v-100h-105v-310h-110v310h-65z" />
    <glyph glyph-name="g" unicode="g" horiz-adv-x="485" 
d="M320 240q0 27 -23.5 48.5t-56.5 21.5t-56.5 -21.5t-23.5 -48.5t23.5 -48.5t56.5 -21.5t56.5 21.5t23.5 48.5zM185 76q-20 -6 -20 -26q0 -9 5 -15t10 -8l5 -2q30 5 55 5q101 0 160.5 -49t59.5 -116t-59.5 -116t-160.5 -49t-160.5 49t-59.5 116q0 33 18.5 63t37.5 44l19 13
v10q-4 2 -11 6.5t-18 20t-11 33.5t10 33t20 21l10 6v10q-6 4 -14 12t-22 37.5t-14 65.5q0 69 55.5 119.5t139.5 50.5h225v-100h-55v-10q25 -30 25 -70q0 -63 -56 -111.5t-139 -48.5zM345 -135q0 25 -28 45t-77 20t-77 -20t-28 -45t28 -45t77 -20t77 20t28 45z" />
    <glyph glyph-name="h" unicode="h" horiz-adv-x="525" 
d="M70 0v680h110v-310h10q1 2 4 6.5t13.5 14.5t22.5 18t32.5 14.5t42.5 6.5q65 0 115 -53t50 -127v-250h-110v250q0 34 -24 57t-61 23t-66 -27t-29 -58v-245h-110z" />
    <glyph glyph-name="i" unicode="i" horiz-adv-x="230" 
d="M60 0v410h110v-410h-110zM180 615q0 -26 -19.5 -45.5t-45.5 -19.5t-45.5 19.5t-19.5 45.5t19.5 45.5t45.5 19.5t45.5 -19.5t19.5 -45.5z" />
    <glyph glyph-name="j" unicode="j" horiz-adv-x="235" 
d="M175 410v-535q0 -70 -45.5 -117.5t-109.5 -47.5q-24 0 -46.5 6t-33.5 12l-10 7l35 95q20 -20 45 -20q23 0 39 18t16 47v535h110zM185 615q0 -26 -19.5 -45.5t-45.5 -19.5t-45.5 19.5t-19.5 45.5t19.5 45.5t45.5 19.5t45.5 -19.5t19.5 -45.5z" />
    <glyph glyph-name="k" unicode="k" horiz-adv-x="470" 
d="M180 680v-680h-110v680h110zM440 410l-125 -200l140 -210h-120l-135 210l120 200h120z" />
    <glyph glyph-name="l" unicode="l" horiz-adv-x="250" 
d="M70 0v680h110v-680h-110z" />
    <glyph glyph-name="m" unicode="m" horiz-adv-x="760" 
d="M65 0v410h110v-40h10q1 2 3.5 6.5t11.5 14.5t19.5 18t28 14.5t37.5 6.5q36 0 67 -17.5t44 -34.5l14 -18h10q5 8 15 19.5t43.5 31t71.5 19.5q61 0 108 -50t47 -120v-260h-110v260q0 30 -21 50t-54 20t-56.5 -22.5t-23.5 -52.5v-255h-110v260q0 30 -21 50t-54 20
t-56.5 -22.5t-23.5 -52.5v-255h-110z" />
    <glyph glyph-name="n" unicode="n" horiz-adv-x="520" 
d="M65 0v410h110v-40h10q1 2 4 6.5t13.5 14.5t22.5 18t32.5 14.5t42.5 6.5q65 0 115 -53t50 -127v-250h-110v250q0 34 -24 57t-61 23t-66 -27t-29 -58v-245h-110z" />
    <glyph glyph-name="o" unicode="o" horiz-adv-x="520" 
d="M370 205q0 51 -34 88t-76 37t-76 -37t-34 -88t34 -88t76 -37t76 37t34 88zM35 205q0 94 65.5 159.5t159.5 65.5t159.5 -65.5t65.5 -159.5t-65.5 -159.5t-159.5 -65.5t-159.5 65.5t-65.5 159.5z" />
    <glyph glyph-name="p" unicode="p" horiz-adv-x="535" 
d="M175 225v-40q0 -41 32 -73t73 -32q43 0 74 35t31 90t-31 90t-74 35q-41 0 -73 -32t-32 -73zM175 410v-40h10q4 7 12.5 17t40.5 26.5t72 16.5q74 0 132 -65t58 -160t-58 -160t-132 -65q-25 0 -47 6t-36 15t-24 18t-14 15l-4 6h-10v-320h-110v690h110z" />
    <glyph glyph-name="q" unicode="q" horiz-adv-x="535" 
d="M360 185v40q0 41 -32 73t-73 32q-43 0 -74 -35t-31 -90t31 -90t74 -35q41 0 73 32t32 73zM360 370v40h110v-690h-110v320h-10q-4 -7 -12.5 -17t-40.5 -26.5t-72 -16.5q-74 0 -132 65t-58 160t58 160t132 65q25 0 47 -6t36 -15t24 -18t14 -15l4 -6h10z" />
    <glyph glyph-name="r" unicode="r" horiz-adv-x="335" 
d="M270 325q-38 0 -66.5 -28.5t-28.5 -66.5v-230h-110v410h110v-40h10q1 2 4 6.5t13 14.5t21 18t29 14.5t38 6.5q11 0 22.5 -2.5t17.5 -5.5l5 -2l-20 -105q-20 10 -45 10z" />
    <glyph glyph-name="s" unicode="s" horiz-adv-x="400" 
d="M190 80q29 0 44.5 12.5t15.5 32.5q0 15 -21.5 24.5t-52.5 18.5t-62 22t-52.5 42.5t-21.5 72.5q0 48 46 86.5t114 38.5q49 0 90 -17.5t58 -34.5l17 -18l-75 -70q-3 4 -9.5 11t-27.5 18t-43 11q-50 0 -50 -35q0 -15 21.5 -24.5t52.5 -18.5t62 -22t52.5 -42.5t21.5 -72.5
q0 -55 -47 -95t-123 -40q-34 0 -65 8t-52 20t-37 24t-24 20l-7 8l75 70q4 -6 12.5 -14t34.5 -22t53 -14z" />
    <glyph glyph-name="t" unicode="t" horiz-adv-x="360" 
d="M20 310v100h65v150h110v-150h105v-100h-105v-165q0 -29 16 -47t39 -18q11 0 22.5 5t17.5 10l5 5l35 -95q-35 -25 -90 -25q-64 0 -109.5 47.5t-45.5 117.5v165h-65z" />
    <glyph glyph-name="u" unicode="u" 
d="M465 410v-410h-110v40h-10q-1 -2 -4 -6.5t-13.5 -14.5t-22.5 -18t-32.5 -14.5t-42.5 -6.5q-65 0 -115 53t-50 127v250h110v-250q0 -34 24 -57t61 -23t66 27t29 58v245h110z" />
    <glyph glyph-name="v" unicode="v" horiz-adv-x="450" 
d="M210 -20l-200 430h120l90 -205h10l90 205h120l-200 -430h-30z" />
    <glyph glyph-name="w" unicode="w" horiz-adv-x="640" 
d="M425 225h10l75 185h120l-175 -430h-20l-110 225h-10l-110 -225h-20l-175 430h120l75 -185h10l100 205h10z" />
    <glyph glyph-name="x" unicode="x" horiz-adv-x="440" 
d="M225 285l65 125h125l-115 -200l130 -210h-125l-80 135h-10l-80 -135h-125l130 210l-115 200h125l65 -125h10z" />
    <glyph glyph-name="y" unicode="y" horiz-adv-x="450" 
d="M320 410h120l-265 -690h-120l110 280l-155 410h120l90 -250h10z" />
    <glyph glyph-name="z" unicode="z" horiz-adv-x="400" 
d="M20 0v10l175 290v10h-165v100h350v-10l-175 -290v-10h165v-100h-350z" />
    <glyph glyph-name="braceleft" unicode="{" horiz-adv-x="340" 
d="M45 200h-15v100h15q30 0 50 20t20 50v175q0 79 46.5 124.5t128.5 45.5h30v-110h-30q-23 0 -39 -17t-16 -43v-175q0 -28 -7.5 -50t-18.5 -34t-22.5 -19.5t-18.5 -9.5l-8 -2v-10q3 -1 8 -2.5t18 -9.5t23 -19.5t18 -33.5t8 -50v-175q0 -26 16 -43t39 -17h30v-110h-30
q-82 0 -128.5 45.5t-46.5 124.5v175q0 30 -20 50t-50 20z" />
    <glyph glyph-name="bar" unicode="|" horiz-adv-x="280" 
d="M80 -280v1070h120v-1070h-120z" />
    <glyph glyph-name="braceright" unicode="}" horiz-adv-x="340" 
d="M310 200h-15q-30 0 -50 -20t-20 -50v-175q0 -79 -46.5 -124.5t-128.5 -45.5h-30v110h30q23 0 39 17t16 43v175q0 28 7.5 50t18.5 34t22.5 19.5t18.5 9.5l8 2v10q-3 1 -8 2.5t-18 9.5t-23 19.5t-18 33.5t-8 50v175q0 26 -16 43t-39 17h-30v110h30q82 0 128.5 -45.5
t46.5 -124.5v-175q0 -30 20 -50t50 -20h15v-100z" />
    <glyph glyph-name="asciitilde" unicode="~" horiz-adv-x="400" 
d="M155 240q-15 0 -25 -11t-10 -29l-90 20q0 62 26 93.5t69 31.5q27 0 67 -22.5t53 -22.5q15 0 25 11t10 29l90 -20q0 -62 -26 -93.5t-69 -31.5q-27 0 -67 22.5t-53 22.5z" />
    <glyph glyph-name="nbspace" unicode="&#xa0;" horiz-adv-x="200" 
 />
    <glyph glyph-name="exclamdown" unicode="&#xa1;" horiz-adv-x="270" 
d="M65 -280l20 470h100l20 -470h-140zM200 355q0 -26 -19.5 -45.5t-45.5 -19.5t-45.5 19.5t-19.5 45.5t19.5 45.5t45.5 19.5t45.5 -19.5t19.5 -45.5z" />
    <glyph glyph-name="cent" unicode="&#xa2;" horiz-adv-x="475" 
d="M315 -110h-110v100q-68 16 -119 76t-51 139t51 139t119 76v100h110v-100q27 -6 50.5 -18t38.5 -26t26 -26.5t16 -21.5l4 -8l-94 -50q-1 2 -3.5 6.5t-11.5 14.5t-19 18t-27 14.5t-35 6.5q-42 0 -76 -37t-34 -88t34 -88t76 -37q31 0 56 17.5t34 34.5l10 18l95 -50
q-2 -4 -5.5 -10.5t-16.5 -24t-28 -31.5t-39 -27t-51 -17v-100z" />
    <glyph glyph-name="sterling" unicode="&#xa3;" horiz-adv-x="500" 
d="M235 510q0 -22 3.5 -47t7.5 -39l4 -14h110v-110h-105q0 -58 -15 -105.5t-30 -66.5l-15 -18v-10h270v-100h-430v80q4 2 11 7t24 24t30 42t24 62.5t11 84.5h-70v110h60q-15 50 -15 100q0 86 52 138t138 52q27 0 52.5 -6.5t43.5 -16t32 -19.5t20 -16l7 -7l-60 -85
q-35 40 -85 40q-30 0 -52.5 -23.5t-22.5 -56.5z" />
    <glyph glyph-name="currency" unicode="&#xa4;" horiz-adv-x="600" 
d="M40 370h65v310h205q109 0 179.5 -62.5t70.5 -147.5q0 -82 -69 -141t-181 -59h-85v-50h225v-100h-225v-120h-120v120h-65v100h65v50h-65v100zM310 570h-85v-200h85q58 0 91.5 28.5t33.5 71.5t-33.5 71.5t-91.5 28.5z" />
    <glyph glyph-name="yen" unicode="&#xa5;" horiz-adv-x="580" 
d="M475 210h-125v-50h125v-100h-125v-60h-120v60h-125v100h125v50h-125v100h90l-185 370h135l140 -285h10l140 285h135l-185 -370h90v-100z" />
    <glyph glyph-name="brokenbar" unicode="&#xa6;" horiz-adv-x="280" 
d="M80 -280v430h120v-430h-120zM200 790v-430h-120v430h120z" />
    <glyph glyph-name="section" unicode="&#xa7;" horiz-adv-x="490" 
d="M345 120v-10q3 -1 9 -4t20.5 -14t26 -24t20.5 -35.5t9 -47.5q0 -69 -55 -117t-140 -48q-36 0 -69 11t-54 26t-37 30.5t-23 26.5l-7 11l80 60q2 -3 5 -7t13.5 -15.5t21.5 -20t29 -15.5t36 -7q33 0 56.5 22.5t23.5 52.5q0 23 -27 44.5t-65 41.5t-76 44.5t-65 64.5t-27 90
q0 31 10.5 57.5t25 43t29 28t25.5 16.5l10 5v10q-3 1 -8 3.5t-18 12.5t-23 22.5t-18 34.5t-8 47q0 65 52 110t133 45q34 0 64.5 -10t51 -23.5t35.5 -27.5t22 -24l7 -10l-80 -60q-4 6 -12.5 15t-33.5 24.5t-49 15.5q-30 0 -50 -19t-20 -46q0 -24 25.5 -45.5t62.5 -41
t74 -42.5t62.5 -62t25.5 -89q0 -31 -10.5 -57.5t-25 -43t-29 -28t-24.5 -16.5zM230 375q-7 -4 -18 -11.5t-29 -32t-18 -51.5t25 -53t50 -39l25 -13q7 4 18 11.5t29 32t18 51.5t-25 53t-50 39z" />
    <glyph glyph-name="dieresis" unicode="&#xa8;" horiz-adv-x="360" 
d="M150 610q0 -22 -19 -41t-41 -19t-41 19t-19 41t19 41t41 19t41 -19t19 -41zM330 610q0 -22 -19 -41t-41 -19t-41 19t-19 41t19 41t41 19t41 -19t19 -41z" />
    <glyph glyph-name="copyright" unicode="&#xa9;" horiz-adv-x="930" 
d="M470 480q29 0 55.5 -9t43 -21t28.5 -24.5t17 -21.5l6 -9l-90 -50q-2 4 -5.5 10t-16 15.5t-28.5 9.5q-31 0 -50.5 -23t-19.5 -67t19.5 -67t50.5 -23q16 0 29.5 11t19.5 23l6 11l90 -50q-2 -4 -6 -10.5t-18 -22.5t-30.5 -28.5t-43.5 -23t-57 -10.5q-72 0 -123.5 54.5
t-51.5 135.5t51.5 135.5t123.5 54.5zM875 290q0 -172 -118.5 -291t-291.5 -119t-291.5 119t-118.5 291t118.5 291t291.5 119t291.5 -119t118.5 -291zM760 290q0 130 -87 220t-208 90t-208 -90t-87 -220t87 -220t208 -90t208 90t87 220z" />
    <glyph glyph-name="ordfeminine" unicode="&#xaa;" horiz-adv-x="335" 
d="M205 510h-55q-11 0 -18.5 -6t-7.5 -14t7.5 -14t18.5 -6q16 0 29.5 10t19.5 20zM160 700q60 0 97.5 -36.5t37.5 -93.5v-160h-90v25h-5q-30 -35 -70 -35q-44 0 -72 25t-28 61q0 42 29.5 68t80.5 26q18 0 34 -2.5t24 -5.5l7 -2q0 22 -13 36t-32 14q-13 0 -25.5 -5t-18.5 -10
l-6 -5l-50 55q3 5 10 12.5t33 20t57 12.5z" />
    <glyph glyph-name="guillemotleft" unicode="&#xab;" horiz-adv-x="440" 
d="M115 25l-95 180l95 180h105l-95 -180l95 -180h-105zM295 25l-95 180l95 180h105l-95 -180l95 -180h-105z" />
    <glyph glyph-name="logicalnot" unicode="&#xac;" horiz-adv-x="400" 
d="M250 150v90h-220v100h330v-190h-110z" />
    <glyph glyph-name="uni00AD" unicode="&#xad;" horiz-adv-x="400" 
d="M370 220h-340v100h340v-100z" />
    <glyph glyph-name="registered" unicode="&#xae;" horiz-adv-x="930" 
d="M875 290q0 -172 -118.5 -291t-291.5 -119t-291.5 119t-118.5 291t118.5 291t291.5 119t291.5 -119t118.5 -291zM760 290q0 130 -87 220t-208 90t-208 -90t-87 -220t87 -220t208 -90t208 90t87 220zM565 255v-10l75 -135h-115l-60 120h-35v-120h-110v360h155
q62 0 103.5 -37.5t41.5 -87.5q0 -27 -14 -49.5t-28 -31.5zM430 320h45q30 0 30 25t-30 25h-45v-50z" />
    <glyph glyph-name="macron" unicode="&#xaf;" horiz-adv-x="295" 
d="M30 600v90h235v-90h-235z" />
    <glyph glyph-name="degree" unicode="&#xb0;" horiz-adv-x="320" 
d="M205 560q0 22 -13 36t-32 14t-32 -14t-13 -36t13 -36t32 -14t32 14t13 36zM30 560q0 52 39 91t91 39t91 -39t39 -91t-39 -91t-91 -39t-91 39t-39 91z" />
    <glyph glyph-name="plusminus" unicode="&#xb1;" horiz-adv-x="430" 
d="M40 45v100h125v120h-130v100h130v145h100v-145h130v-100h-130v-120h125v-100h-350z" />
    <glyph glyph-name="twosuperior" unicode="&#xb2;" horiz-adv-x="295" 
d="M260 410h-230v65q5 2 14 6t31.5 16.5t39.5 25t31 30t14 32.5t-10 25t-25 10q-13 0 -25.5 -6t-18.5 -12l-6 -7l-50 60q4 5 13 12.5t37.5 20t59.5 12.5q51 0 85.5 -30.5t34.5 -69.5q0 -36 -21.5 -62t-42.5 -34l-21 -9v-5h90v-80z" />
    <glyph glyph-name="threesuperior" unicode="&#xb3;" horiz-adv-x="280" 
d="M250 485q0 -39 -33 -67t-87 -28q-31 0 -58.5 11t-39.5 23l-12 11l50 60q20 -25 55 -25q30 0 30 25t-30 25h-45v50l40 25v5h-85v80h205v-65l-65 -39v-6q3 0 8 -1.5t18 -7t23 -14t18 -25t8 -37.5z" />
    <glyph glyph-name="acute" unicode="&#xb4;" horiz-adv-x="240" 
d="M210 595l-150 -65l-30 65l140 85z" />
    <glyph glyph-name="mu" unicode="&#xb5;" 
d="M65 -280v690h110v-250q0 -34 24 -57t61 -23t66 27t29 58v245h110v-410h-110v40h-10q-1 -2 -2.5 -6.5t-8.5 -14.5t-16 -18t-24.5 -14.5t-33.5 -6.5q-24 0 -43 15t-25 30l-7 15h-10v-320h-110z" />
    <glyph glyph-name="paragraph" unicode="&#xb6;" horiz-adv-x="410" 
d="M205 -280v640q-64 0 -109.5 46.5t-45.5 113.5t45.5 113.5t109.5 46.5h185v-100h-75v-860h-110z" />
    <glyph glyph-name="periodcentered" unicode="&#xb7;" horiz-adv-x="200" 
d="M165 340q0 -26 -19.5 -45.5t-45.5 -19.5t-45.5 19.5t-19.5 45.5t19.5 45.5t45.5 19.5t45.5 -19.5t19.5 -45.5z" />
    <glyph glyph-name="cedilla" unicode="&#xb8;" horiz-adv-x="255" 
d="M165 0l-15 -50q31 -8 53 -32.5t22 -57.5q0 -42 -32 -71t-83 -29q-20 0 -40 7.5t-30 14.5l-10 8l30 60q25 -20 50 -20q18 0 29 9t11 21t-10.5 21t-25.5 9h-49l35 110h65z" />
    <glyph glyph-name="onesuperior" unicode="&#xb9;" horiz-adv-x="270" 
d="M250 410h-210v80h60v110l-50 -10l-20 70l120 40h40v-210h60v-80z" />
    <glyph glyph-name="ordmasculine" unicode="&#xba;" horiz-adv-x="370" 
d="M340 545q0 -64 -45.5 -109.5t-109.5 -45.5t-109.5 45.5t-45.5 109.5t45.5 109.5t109.5 45.5t109.5 -45.5t45.5 -109.5zM240 545q0 29 -16 47t-39 18t-39 -18t-16 -47t16 -47t39 -18t39 18t16 47z" />
    <glyph glyph-name="guillemotright" unicode="&#xbb;" horiz-adv-x="440" 
d="M420 205l-95 -180h-105l95 180l-95 180h105zM240 205l-95 -180h-105l95 180l-95 180h105z" />
    <glyph glyph-name="onequarter" unicode="&#xbc;" horiz-adv-x="690" 
d="M250 401h-210v80h60v110l-50 -10l-20 70l120 40h40v-210h60v-80zM485 680h125l-370 -680h-125zM615 115h35v-75h-35v-40h-90v40h-125v60l150 190h65v-175zM525 115v35h-5l-25 -30v-5h30z" />
    <glyph glyph-name="onehalf" unicode="&#xbd;" horiz-adv-x="700" 
d="M250 400h-210v80h60v110l-50 -10l-20 70l120 40h40v-210h60v-80zM475 680h125l-370 -680h-125zM660 0h-230v65q5 2 14 6t31.5 16.5t39.5 25t31 30t14 32.5t-10 25t-25 10q-13 0 -25.5 -6t-18.5 -12l-6 -7l-50 60q4 5 13 12.5t37.5 20t59.5 12.5q51 0 85.5 -30.5
t34.5 -69.5q0 -36 -21.5 -62t-42.5 -34l-21 -9v-5h90v-80z" />
    <glyph glyph-name="threequarters" unicode="&#xbe;" horiz-adv-x="675" 
d="M600 115h35v-75h-35v-40h-90v40h-125v60l150 190h65v-175zM510 115v35h-5l-25 -30v-5h30zM470 680h125l-370 -680h-125zM260 485q0 -39 -33 -67t-87 -28q-31 0 -58.5 11t-39.5 23l-12 11l50 60q20 -25 55 -25q30 0 30 25t-30 25h-45v50l40 25v5h-85v80h205v-65l-65 -39
v-6q3 0 8 -1.5t18 -7t23 -14t18 -25t8 -37.5z" />
    <glyph glyph-name="questiondown" unicode="&#xbf;" horiz-adv-x="490" 
d="M195 355q0 26 19.5 45.5t45.5 19.5t45.5 -19.5t19.5 -45.5t-19.5 -45.5t-45.5 -19.5t-45.5 19.5t-19.5 45.5zM160 -90q0 -42 30 -71t75 -29q33 0 64.5 20t46.5 40l14 20l90 -65q-3 -5 -8.5 -13.5t-26 -30t-44.5 -38t-63.5 -30t-82.5 -13.5q-92 0 -156 59t-64 136
q0 40 17.5 75t42.5 60.5t50 49t42.5 52t17.5 58.5h110q0 -42 -16 -77.5t-38.5 -60.5t-45.5 -47t-39 -46.5t-16 -48.5z" />
    <glyph glyph-name="Agrave" unicode="&#xc0;" horiz-adv-x="640" 
d="M325 720l295 -720h-130l-40 100h-261l-39 -100h-130l295 720h10zM315 420l-80 -210h170l-80 210h-10zM390 790l-150 65l40 85l140 -85z" />
    <glyph glyph-name="Aacute" unicode="&#xc1;" horiz-adv-x="640" 
d="M325 720l295 -720h-130l-40 100h-261l-39 -100h-130l295 720h10zM315 420l-80 -210h170l-80 210h-10zM440 855l-150 -65l-30 65l140 85z" />
    <glyph glyph-name="Acircumflex" unicode="&#xc2;" horiz-adv-x="640" 
d="M325 720l295 -720h-130l-40 100h-261l-39 -100h-130l295 720h10zM315 420l-80 -210h170l-80 210h-10zM430 780l-110 50l-110 -50l-30 60l140 85l140 -85z" />
    <glyph glyph-name="Atilde" unicode="&#xc3;" horiz-adv-x="640" 
d="M325 720l295 -720h-130l-40 100h-261l-39 -100h-130l295 720h10zM315 420l-80 -210h170l-80 210h-10zM290 835q-20 0 -20 -30l-75 25q0 43 22 69t53 26q19 0 44 -15t36 -15q20 0 20 30l75 -25q0 -43 -22 -69t-53 -26q-19 0 -44 15t-36 15z" />
    <glyph glyph-name="Adieresis" unicode="&#xc4;" horiz-adv-x="640" 
d="M325 720l295 -720h-130l-40 100h-261l-39 -100h-130l295 720h10zM315 420l-80 -210h170l-80 210h-10zM295 860q0 -22 -18.5 -41t-41.5 -19t-41.5 19t-18.5 41t18.5 41t41.5 19t41.5 -19t18.5 -41zM475 860q0 -22 -18.5 -41t-41.5 -19t-41.5 19t-18.5 41t18.5 41t41.5 19
t41.5 -19t18.5 -41z" />
    <glyph glyph-name="Aring" unicode="&#xc5;" horiz-adv-x="640" 
d="M325 720l295 -720h-130l-40 100h-261l-39 -100h-130l295 720h10zM315 420l-80 -210h170l-80 210h-10zM430 865q0 -42 -32.5 -73.5t-77.5 -31.5t-77.5 31.5t-32.5 73.5t32.5 73.5t77.5 31.5t77.5 -31.5t32.5 -73.5zM365 865q0 19 -13 32t-32 13t-32 -13t-13 -32t13 -32
t32 -13t32 13t13 32z" />
    <glyph glyph-name="AE" unicode="&#xc6;" horiz-adv-x="850" 
d="M405 140h-210l-55 -140h-130l265 680h525v-110h-275v-170h195v-110h-195v-180h285v-110h-405v140zM360 570l-125 -320h170v320h-45z" />
    <glyph glyph-name="Ccedilla" unicode="&#xc7;" horiz-adv-x="715" 
d="M395 700q56 0 106.5 -16.5t82.5 -40t56 -47t34 -40.5l11 -16l-105 -60q-3 4 -8 11.5t-22.5 26.5t-37.5 33.5t-51.5 26.5t-65.5 12q-92 0 -161 -73.5t-69 -176.5t69 -176.5t161 -73.5q36 0 69.5 13t55.5 31t38.5 36.5t23.5 31.5l8 13l105 -60q-3 -7 -10 -18t-32.5 -40
t-55.5 -51.5t-80 -42t-105 -22.5l-12 -41q31 -8 53 -32.5t22 -57.5q0 -42 -32 -71t-83 -29q-20 0 -40 7.5t-30 14.5l-10 8l30 60q25 -20 50 -20q18 0 29 9t11 21t-10.5 21t-25.5 9h-49l33 103q-131 17 -219.5 118.5t-88.5 238.5q0 150 104 255t251 105z" />
    <glyph glyph-name="Egrave" unicode="&#xc8;" 
d="M85 0v680h395v-110h-275v-170h195v-110h-195v-180h285v-110h-405zM345 765l-150 65l40 85l140 -85z" />
    <glyph glyph-name="Eacute" unicode="&#xc9;" 
d="M85 0v680h395v-110h-275v-170h195v-110h-195v-180h285v-110h-405zM405 830l-150 -65l-30 65l140 85z" />
    <glyph glyph-name="Ecircumflex" unicode="&#xca;" 
d="M85 0v680h395v-110h-275v-170h195v-110h-195v-180h285v-110h-405zM400 775l-110 50l-110 -50l-30 60l140 85l140 -85z" />
    <glyph glyph-name="Edieresis" unicode="&#xcb;" 
d="M85 0v680h395v-110h-275v-170h195v-110h-195v-180h285v-110h-405zM260 845q0 -23 -19 -41.5t-41 -18.5t-41 18.5t-19 41.5t19 41.5t41 18.5t41 -18.5t19 -41.5zM440 845q0 -23 -19 -41.5t-41 -18.5t-41 18.5t-19 41.5t19 41.5t41 18.5t41 -18.5t19 -41.5z" />
    <glyph glyph-name="Igrave" unicode="&#xcc;" horiz-adv-x="295" 
d="M90 0v680h120v-680h-120zM215 770l-150 65l40 85l140 -85z" />
    <glyph glyph-name="Iacute" unicode="&#xcd;" horiz-adv-x="295" 
d="M85 0v680h120v-680h-120zM260 835l-150 -65l-30 65l140 85z" />
    <glyph glyph-name="Icircumflex" unicode="&#xce;" horiz-adv-x="310" 
d="M95 0v680h120v-680h-120zM265 780l-110 50l-110 -50l-30 60l140 85l140 -85z" />
    <glyph glyph-name="Idieresis" unicode="&#xcf;" horiz-adv-x="310" 
d="M95 0v680h120v-680h-120zM130 835q0 -23 -19 -41.5t-41 -18.5t-41 18.5t-19 41.5t19 41.5t41 18.5t41 -18.5t19 -41.5zM310 835q0 -23 -19 -41.5t-41 -18.5t-41 18.5t-19 41.5t19 41.5t41 18.5t41 -18.5t19 -41.5z" />
    <glyph glyph-name="Eth" unicode="&#xd0;" horiz-adv-x="685" 
d="M100 680h200q142 0 243.5 -100.5t101.5 -239.5t-101.5 -239.5t-243.5 -100.5h-200v280h-60v110h60v290zM300 570h-80v-180h120v-110h-120v-170h80q87 0 153.5 68.5t66.5 161.5t-66.5 161.5t-153.5 68.5z" />
    <glyph glyph-name="Ntilde" unicode="&#xd1;" horiz-adv-x="680" 
d="M465 280h10v400h120v-700h-20l-360 420h-10v-400h-120v700h20zM310 820q-20 0 -20 -30l-75 25q0 43 22 69t53 26q19 0 44 -15t36 -15q20 0 20 30l75 -25q0 -43 -22 -69t-53 -26q-19 0 -44 15t-36 15z" />
    <glyph glyph-name="Ograve" unicode="&#xd2;" horiz-adv-x="790" 
d="M40 340q0 150 104 255t251 105t251 -105t104 -255t-104 -255t-251 -105t-251 105t-104 255zM625 340q0 103 -69 176.5t-161 73.5t-161 -73.5t-69 -176.5t69 -176.5t161 -73.5t161 73.5t69 176.5zM465 770l-150 65l40 85l140 -85z" />
    <glyph glyph-name="Oacute" unicode="&#xd3;" horiz-adv-x="790" 
d="M40 340q0 150 104 255t251 105t251 -105t104 -255t-104 -255t-251 -105t-251 105t-104 255zM625 340q0 103 -69 176.5t-161 73.5t-161 -73.5t-69 -176.5t69 -176.5t161 -73.5t161 73.5t69 176.5zM515 835l-150 -65l-30 65l140 85z" />
    <glyph glyph-name="Ocircumflex" unicode="&#xd4;" horiz-adv-x="790" 
d="M40 340q0 150 104 255t251 105t251 -105t104 -255t-104 -255t-251 -105t-251 105t-104 255zM625 340q0 103 -69 176.5t-161 73.5t-161 -73.5t-69 -176.5t69 -176.5t161 -73.5t161 73.5t69 176.5zM505 790l-110 50l-110 -50l-30 60l140 85l140 -85z" />
    <glyph glyph-name="Otilde" unicode="&#xd5;" horiz-adv-x="790" 
d="M40 340q0 150 104 255t251 105t251 -105t104 -255t-104 -255t-251 -105t-251 105t-104 255zM625 340q0 103 -69 176.5t-161 73.5t-161 -73.5t-69 -176.5t69 -176.5t161 -73.5t161 73.5t69 176.5zM370 820q-20 0 -20 -30l-75 25q0 43 22 69t53 26q19 0 44 -15t36 -15
q20 0 20 30l75 -25q0 -43 -22 -69t-53 -26q-19 0 -44 15t-36 15z" />
    <glyph glyph-name="Odieresis" unicode="&#xd6;" horiz-adv-x="790" 
d="M40 340q0 150 104 255t251 105t251 -105t104 -255t-104 -255t-251 -105t-251 105t-104 255zM625 340q0 103 -69 176.5t-161 73.5t-161 -73.5t-69 -176.5t69 -176.5t161 -73.5t161 73.5t69 176.5zM370 860q0 -22 -19 -41t-41 -19t-41 19t-19 41t19 41t41 19t41 -19t19 -41
zM550 860q0 -22 -19 -41t-41 -19t-41 19t-19 41t19 41t41 19t41 -19t19 -41z" />
    <glyph glyph-name="multiply" unicode="&#xd7;" horiz-adv-x="400" 
d="M365 375l-100 -110l100 -110l-65 -65l-100 100l-100 -100l-65 65l100 110l-100 110l65 65l100 -100l100 100z" />
    <glyph glyph-name="Oslash" unicode="&#xd8;" horiz-adv-x="810" 
d="M760 340q0 -153 -102.5 -256.5t-252.5 -103.5q-53 0 -102 15t-81 36t-56 42.5t-35 36.5l-11 15l-100 -60v95l60 35q-30 60 -30 145q0 150 104 255t251 105q53 0 102 -15t81 -36t56 -42.5t35 -36.5l11 -15l100 60v-95l-60 -35q30 -65 30 -145zM635 340q0 18 -3.5 38
t-7.5 31l-4 11l-390 -235q3 -4 8 -10.5t22 -22.5t36 -28.5t48.5 -23t60.5 -10.5q92 0 161 73.5t69 176.5zM175 340q0 -22 3.5 -42t7.5 -29l4 -9l390 235q-2 4 -7 10.5t-21.5 22.5t-35 28.5t-49 23t-62.5 10.5q-92 0 -161 -73.5t-69 -176.5z" />
    <glyph glyph-name="Ugrave" unicode="&#xd9;" horiz-adv-x="660" 
d="M200 680v-445q0 -63 38 -104t92 -41t92 41t38 104v445h120v-445q0 -108 -72.5 -181.5t-177.5 -73.5t-177.5 73.5t-72.5 181.5v445h120zM380 770l-150 65l40 85l140 -85z" />
    <glyph glyph-name="Uacute" unicode="&#xda;" horiz-adv-x="660" 
d="M200 680v-445q0 -63 38 -104t92 -41t92 41t38 104v445h120v-445q0 -108 -72.5 -181.5t-177.5 -73.5t-177.5 73.5t-72.5 181.5v445h120zM460 835l-150 -65l-30 65l140 85z" />
    <glyph glyph-name="Ucircumflex" unicode="&#xdb;" horiz-adv-x="660" 
d="M200 680v-445q0 -63 38 -104t92 -41t92 41t38 104v445h120v-445q0 -108 -72.5 -181.5t-177.5 -73.5t-177.5 73.5t-72.5 181.5v445h120zM440 770l-110 50l-110 -50l-30 60l140 85l140 -85z" />
    <glyph glyph-name="Udieresis" unicode="&#xdc;" horiz-adv-x="660" 
d="M200 680v-445q0 -63 38 -104t92 -41t92 41t38 104v445h120v-445q0 -108 -72.5 -181.5t-177.5 -73.5t-177.5 73.5t-72.5 181.5v445h120zM305 850q0 -22 -18.5 -41t-41.5 -19t-41.5 19t-18.5 41t18.5 41t41.5 19t41.5 -19t18.5 -41zM485 850q0 -22 -18.5 -41t-41.5 -19
t-41.5 19t-18.5 41t18.5 41t41.5 19t41.5 -19t18.5 -41z" />
    <glyph glyph-name="Yacute" unicode="&#xdd;" horiz-adv-x="580" 
d="M230 240l-220 440h135l140 -285h10l140 285h135l-220 -440v-240h-120v240zM405 825l-150 -65l-30 65l140 85z" />
    <glyph glyph-name="Thorn" unicode="&#xde;" horiz-adv-x="615" 
d="M575 350q0 -126 -88 -208t-232 -82h-50v-70h-120v720h120v-70h50q144 0 232 -82t88 -208zM450 350q0 76 -55 128t-140 52h-50v-360h50q85 0 140 52t55 128z" />
    <glyph glyph-name="germandbls" unicode="&#xdf;" horiz-adv-x="540" 
d="M290 0v100q20 -10 40 -10q27 0 43.5 17.5t16.5 47.5q0 27 -25 55.5t-50 61t-25 68.5q0 39 30 94t30 86q0 27 -22.5 48.5t-52.5 21.5q-41 0 -68 -27t-27 -68v-495h-110v495q0 86 59.5 145.5t145.5 59.5q82 0 136 -52t54 -128q0 -39 -30 -94t-30 -86q0 -23 15.5 -47.5
t34.5 -43t34.5 -48t15.5 -61.5q0 -68 -43.5 -109t-121.5 -41q-9 0 -21.5 2.5t-20.5 5.5z" />
    <glyph glyph-name="agrave" unicode="&#xe0;" horiz-adv-x="465" 
d="M300 155q-45 5 -105 5q-25 0 -40 -12t-15 -28t16.5 -28t48.5 -12q21 0 38.5 7.5t27.5 19t17 22.5t10 19zM215 430q82 0 138.5 -55.5t56.5 -134.5v-240h-110v40h-10q-1 -2 -4 -6.5t-13.5 -14.5t-22.5 -18t-32.5 -14.5t-42.5 -6.5q-67 0 -108.5 39.5t-41.5 100.5
q0 62 46 101t124 39q27 0 53 -5t39 -10l13 -5q0 37 -25.5 63.5t-59.5 26.5q-22 0 -43.5 -9t-31.5 -17l-10 -9l-65 75q6 7 17 17t50 26.5t83 16.5zM295 500l-150 65l40 85l140 -85z" />
    <glyph glyph-name="aacute" unicode="&#xe1;" horiz-adv-x="465" 
d="M300 155q-45 5 -105 5q-25 0 -40 -12t-15 -28t16.5 -28t48.5 -12q21 0 38.5 7.5t27.5 19t17 22.5t10 19zM215 430q82 0 138.5 -55.5t56.5 -134.5v-240h-110v40h-10q-1 -2 -4 -6.5t-13.5 -14.5t-22.5 -18t-32.5 -14.5t-42.5 -6.5q-67 0 -108.5 39.5t-41.5 100.5
q0 62 46 101t124 39q27 0 53 -5t39 -10l13 -5q0 37 -25.5 63.5t-59.5 26.5q-22 0 -43.5 -9t-31.5 -17l-10 -9l-65 75q6 7 17 17t50 26.5t83 16.5zM365 565l-150 -65l-30 65l140 85z" />
    <glyph glyph-name="acircumflex" unicode="&#xe2;" horiz-adv-x="465" 
d="M300 155q-45 5 -105 5q-25 0 -40 -12t-15 -28t16.5 -28t48.5 -12q21 0 38.5 7.5t27.5 19t17 22.5t10 19zM215 430q82 0 138.5 -55.5t56.5 -134.5v-240h-110v40h-10q-1 -2 -4 -6.5t-13.5 -14.5t-22.5 -18t-32.5 -14.5t-42.5 -6.5q-67 0 -108.5 39.5t-41.5 100.5
q0 62 46 101t124 39q27 0 53 -5t39 -10l13 -5q0 37 -25.5 63.5t-59.5 26.5q-22 0 -43.5 -9t-31.5 -17l-10 -9l-65 75q6 7 17 17t50 26.5t83 16.5zM350 510l-110 50l-110 -50l-30 60l140 85l140 -85z" />
    <glyph glyph-name="atilde" unicode="&#xe3;" horiz-adv-x="465" 
d="M300 155q-45 5 -105 5q-25 0 -40 -12t-15 -28t16.5 -28t48.5 -12q21 0 38.5 7.5t27.5 19t17 22.5t10 19zM215 430q82 0 138.5 -55.5t56.5 -134.5v-240h-110v40h-10q-1 -2 -4 -6.5t-13.5 -14.5t-22.5 -18t-32.5 -14.5t-42.5 -6.5q-67 0 -108.5 39.5t-41.5 100.5
q0 62 46 101t124 39q27 0 53 -5t39 -10l13 -5q0 37 -25.5 63.5t-59.5 26.5q-22 0 -43.5 -9t-31.5 -17l-10 -9l-65 75q6 7 17 17t50 26.5t83 16.5zM205 550q-20 0 -20 -30l-75 25q0 43 22 69t53 26q19 0 44 -15t36 -15q20 0 20 30l75 -25q0 -43 -22 -69t-53 -26q-19 0 -44 15
t-36 15z" />
    <glyph glyph-name="adieresis" unicode="&#xe4;" horiz-adv-x="465" 
d="M300 155q-45 5 -105 5q-25 0 -40 -12t-15 -28t16.5 -28t48.5 -12q21 0 38.5 7.5t27.5 19t17 22.5t10 19zM215 430q82 0 138.5 -55.5t56.5 -134.5v-240h-110v40h-10q-1 -2 -4 -6.5t-13.5 -14.5t-22.5 -18t-32.5 -14.5t-42.5 -6.5q-67 0 -108.5 39.5t-41.5 100.5
q0 62 46 101t124 39q27 0 53 -5t39 -10l13 -5q0 37 -25.5 63.5t-59.5 26.5q-22 0 -43.5 -9t-31.5 -17l-10 -9l-65 75q6 7 17 17t50 26.5t83 16.5zM215 590q0 -22 -18.5 -41t-41.5 -19t-41.5 19t-18.5 41t18.5 41t41.5 19t41.5 -19t18.5 -41zM395 590q0 -22 -18.5 -41
t-41.5 -19t-41.5 19t-18.5 41t18.5 41t41.5 19t41.5 -19t18.5 -41z" />
    <glyph glyph-name="aring" unicode="&#xe5;" horiz-adv-x="465" 
d="M300 155q-45 5 -105 5q-25 0 -40 -12t-15 -28t16.5 -28t48.5 -12q21 0 38.5 7.5t27.5 19t17 22.5t10 19zM215 430q82 0 138.5 -55.5t56.5 -134.5v-240h-110v40h-10q-1 -2 -4 -6.5t-13.5 -14.5t-22.5 -18t-32.5 -14.5t-42.5 -6.5q-67 0 -108.5 39.5t-41.5 100.5
q0 62 46 101t124 39q27 0 53 -5t39 -10l13 -5q0 37 -25.5 63.5t-59.5 26.5q-22 0 -43.5 -9t-31.5 -17l-10 -9l-65 75q6 7 17 17t50 26.5t83 16.5zM345 600q0 -42 -32.5 -73.5t-77.5 -31.5t-77.5 31.5t-32.5 73.5t32.5 73.5t77.5 31.5t77.5 -31.5t32.5 -73.5zM280 600
q0 19 -13 32t-32 13t-32 -13t-13 -32t13 -32t32 -13t32 13t13 32z" />
    <glyph glyph-name="ae" unicode="&#xe6;" horiz-adv-x="745" 
d="M300 155q-35 5 -105 5q-25 0 -40 -12t-15 -28t16.5 -28t48.5 -12q21 0 38.5 7.5t27.5 19t17 22.5t10 19zM365 50h-10l-5 -7.5t-16.5 -16.5t-30 -21.5t-45.5 -17t-63 -7.5q-82 0 -126 40t-44 100q0 62 46 101t124 39q27 0 53 -5t39 -10l13 -5q0 37 -25.5 63.5t-59.5 26.5
q-22 0 -42 -7.5t-29 -14.5l-9 -8l-65 75q2 2 5.5 6t16.5 13.5t28.5 16.5t41 13t53.5 6q44 0 79 -17.5t48 -34.5l13 -18h10l5 7.5t15.5 16.5t28 21.5t41.5 17t55 7.5q83 0 144 -65t61 -155l-45 -45h-250q8 -38 32.5 -61.5t57.5 -23.5q29 0 52.5 15t33.5 30l9 15l95 -50
q-2 -4 -6.5 -11.5t-21.5 -26.5t-37 -33.5t-53.5 -26.5t-71.5 -12q-47 0 -83 17.5t-49 34.5zM510 330q-65 0 -90 -75h180q-25 75 -90 75z" />
    <glyph glyph-name="ccedilla" unicode="&#xe7;" horiz-adv-x="475" 
d="M260 80q31 0 56 17.5t34 34.5l10 18l95 -50q-2 -4 -6 -11.5t-19.5 -27t-34 -34.5t-50 -29t-66.5 -17l-9 -31q31 -8 53 -32.5t22 -57.5q0 -42 -32 -71t-83 -29q-20 0 -40 7.5t-30 14.5l-10 8l30 60q25 -20 50 -20q18 0 29 9t11 21t-10.5 21t-25.5 9h-49l30 95
q-78 15 -129 76.5t-51 143.5q0 94 65.5 159.5t159.5 65.5q38 0 71.5 -11.5t54 -27.5t36 -32t22.5 -27l6 -12l-95 -50q-1 2 -3.5 6.5t-11 14.5t-19 18t-27 14.5t-34.5 6.5q-42 0 -76 -37t-34 -88t34 -88t76 -37z" />
    <glyph glyph-name="egrave" unicode="&#xe8;" horiz-adv-x="505" 
d="M430 165h-275q12 -36 40.5 -60.5t64.5 -24.5q31 0 56 15t34 30l10 15l95 -50q-2 -4 -6.5 -11.5t-21.5 -26.5t-37.5 -33.5t-55.5 -26.5t-74 -12q-94 0 -159.5 65.5t-65.5 159.5t65.5 159.5t159.5 65.5q90 0 152.5 -65t62.5 -155zM260 330q-67 0 -100 -75h200
q-33 75 -100 75zM325 500l-150 65l40 85l140 -85z" />
    <glyph glyph-name="eacute" unicode="&#xe9;" horiz-adv-x="505" 
d="M430 165h-275q12 -36 40.5 -60.5t64.5 -24.5q31 0 56 15t34 30l10 15l95 -50q-2 -4 -6.5 -11.5t-21.5 -26.5t-37.5 -33.5t-55.5 -26.5t-74 -12q-94 0 -159.5 65.5t-65.5 159.5t65.5 159.5t159.5 65.5q90 0 152.5 -65t62.5 -155zM260 330q-67 0 -100 -75h200
q-33 75 -100 75zM365 575l-150 -65l-30 65l140 85z" />
    <glyph glyph-name="ecircumflex" unicode="&#xea;" horiz-adv-x="505" 
d="M430 165h-275q12 -36 40.5 -60.5t64.5 -24.5q31 0 56 15t34 30l10 15l95 -50q-2 -4 -6.5 -11.5t-21.5 -26.5t-37.5 -33.5t-55.5 -26.5t-74 -12q-94 0 -159.5 65.5t-65.5 159.5t65.5 159.5t159.5 65.5q90 0 152.5 -65t62.5 -155zM260 330q-67 0 -100 -75h200
q-33 75 -100 75zM365 510l-110 50l-110 -50l-30 60l140 85l140 -85z" />
    <glyph glyph-name="edieresis" unicode="&#xeb;" horiz-adv-x="505" 
d="M430 165h-275q12 -36 40.5 -60.5t64.5 -24.5q31 0 56 15t34 30l10 15l95 -50q-2 -4 -6.5 -11.5t-21.5 -26.5t-37.5 -33.5t-55.5 -26.5t-74 -12q-94 0 -159.5 65.5t-65.5 159.5t65.5 159.5t159.5 65.5q90 0 152.5 -65t62.5 -155zM260 330q-67 0 -100 -75h200
q-33 75 -100 75zM230 590q0 -22 -19 -41t-41 -19t-41 19t-19 41t19 41t41 19t41 -19t19 -41zM410 590q0 -22 -19 -41t-41 -19t-41 19t-19 41t19 41t41 19t41 -19t19 -41z" />
    <glyph glyph-name="igrave" unicode="&#xec;" horiz-adv-x="240" 
d="M180 510l-150 65l40 85l140 -85zM65 0v410h110v-410h-110z" />
    <glyph glyph-name="iacute" unicode="&#xed;" horiz-adv-x="235" 
d="M220 575l-150 -65l-30 65l140 85zM60 0v410h110v-410h-110z" />
    <glyph glyph-name="icircumflex" unicode="&#xee;" horiz-adv-x="240" 
d="M65 0v410h110v-410h-110zM230 520l-110 50l-110 -50l-30 60l140 85l140 -85z" />
    <glyph glyph-name="idieresis" unicode="&#xef;" horiz-adv-x="235" 
d="M95 600q0 -22 -18.5 -41t-41.5 -19t-41.5 19t-18.5 41t18.5 41t41.5 19t41.5 -19t18.5 -41zM275 600q0 -22 -18.5 -41t-41.5 -19t-41.5 19t-18.5 41t18.5 41t41.5 19t41.5 -19t18.5 -41zM65 0v410h110v-410h-110z" />
    <glyph glyph-name="eth" unicode="&#xf0;" horiz-adv-x="480" 
d="M130 535l55 60l-80 70l65 70l80 -70l55 60l70 -65l-55 -60q5 -4 13.5 -13t30 -38t38 -61.5t30 -83.5t13.5 -104v-100q0 -93 -61.5 -156.5t-148.5 -63.5q-86 0 -148 62t-62 148q0 85 58.5 147.5t131.5 62.5q36 0 64.5 -12.5t39.5 -25.5l11 -12h10q-7 49 -28 94t-39 66
l-18 20l-55 -60zM140 190q0 -48 28 -79t67 -31t67 31t28 79t-28 79t-67 31t-67 -31t-28 -79z" />
    <glyph glyph-name="ntilde" unicode="&#xf1;" horiz-adv-x="520" 
d="M65 0v410h110v-40h10q1 2 4 6.5t13.5 14.5t22.5 18t32.5 14.5t42.5 6.5q65 0 115 -53t50 -127v-250h-110v250q0 34 -24 57t-61 23t-66 -27t-29 -58v-245h-110zM245 570q-20 0 -20 -30l-75 25q0 43 22 69t53 26q19 0 44 -15t36 -15q20 0 20 30l75 -25q0 -43 -22 -69
t-53 -26q-19 0 -44 15t-36 15z" />
    <glyph glyph-name="ograve" unicode="&#xf2;" horiz-adv-x="520" 
d="M370 205q0 51 -34 88t-76 37t-76 -37t-34 -88t34 -88t76 -37t76 37t34 88zM35 205q0 94 65.5 159.5t159.5 65.5t159.5 -65.5t65.5 -159.5t-65.5 -159.5t-159.5 -65.5t-159.5 65.5t-65.5 159.5zM320 510l-150 65l40 85l140 -85z" />
    <glyph glyph-name="oacute" unicode="&#xf3;" horiz-adv-x="520" 
d="M370 205q0 51 -34 88t-76 37t-76 -37t-34 -88t34 -88t76 -37t76 37t34 88zM35 205q0 94 65.5 159.5t159.5 65.5t159.5 -65.5t65.5 -159.5t-65.5 -159.5t-159.5 -65.5t-159.5 65.5t-65.5 159.5zM370 575l-150 -65l-30 65l140 85z" />
    <glyph glyph-name="ocircumflex" unicode="&#xf4;" horiz-adv-x="520" 
d="M370 205q0 51 -34 88t-76 37t-76 -37t-34 -88t34 -88t76 -37t76 37t34 88zM35 205q0 94 65.5 159.5t159.5 65.5t159.5 -65.5t65.5 -159.5t-65.5 -159.5t-159.5 -65.5t-159.5 65.5t-65.5 159.5zM370 520l-110 50l-110 -50l-30 60l140 85l140 -85z" />
    <glyph glyph-name="otilde" unicode="&#xf5;" horiz-adv-x="520" 
d="M370 205q0 51 -34 88t-76 37t-76 -37t-34 -88t34 -88t76 -37t76 37t34 88zM35 205q0 94 65.5 159.5t159.5 65.5t159.5 -65.5t65.5 -159.5t-65.5 -159.5t-159.5 -65.5t-159.5 65.5t-65.5 159.5zM230 560q-20 0 -20 -30l-75 25q0 43 22 69t53 26q19 0 44 -15t36 -15
q20 0 20 30l75 -25q0 -43 -22 -69t-53 -26q-19 0 -44 15t-36 15z" />
    <glyph glyph-name="odieresis" unicode="&#xf6;" horiz-adv-x="520" 
d="M370 205q0 51 -34 88t-76 37t-76 -37t-34 -88t34 -88t76 -37t76 37t34 88zM35 205q0 94 65.5 159.5t159.5 65.5t159.5 -65.5t65.5 -159.5t-65.5 -159.5t-159.5 -65.5t-159.5 65.5t-65.5 159.5zM235 600q0 -22 -18.5 -41t-41.5 -19t-41.5 19t-18.5 41t18.5 41t41.5 19
t41.5 -19t18.5 -41zM415 600q0 -22 -18.5 -41t-41.5 -19t-41.5 19t-18.5 41t18.5 41t41.5 19t41.5 -19t18.5 -41z" />
    <glyph glyph-name="divide" unicode="&#xf7;" horiz-adv-x="410" 
d="M30 320h350v-100h-350v100zM140 85q0 26 19.5 45.5t45.5 19.5t45.5 -19.5t19.5 -45.5t-19.5 -45.5t-45.5 -19.5t-45.5 19.5t-19.5 45.5zM380 220h-350v100h350v-100zM140 455q0 26 19.5 45.5t45.5 19.5t45.5 -19.5t19.5 -45.5t-19.5 -45.5t-45.5 -19.5t-45.5 19.5
t-19.5 45.5z" />
    <glyph glyph-name="oslash" unicode="&#xf8;" horiz-adv-x="540" 
d="M495 205q0 -94 -65.5 -159.5t-159.5 -65.5q-51 0 -95 21.5t-62 42.5l-18 21l-85 -50v80l50 30q-15 30 -15 80q0 94 65.5 159.5t159.5 65.5q51 0 95 -21.5t62 -42.5l18 -21l85 50v-80l-50 -30q15 -35 15 -80zM380 205v25l-190 -110q35 -40 80 -40q42 0 76 37t34 88z
M160 205v-25l190 110q-35 40 -80 40q-42 0 -76 -37t-34 -88z" />
    <glyph glyph-name="ugrave" unicode="&#xf9;" 
d="M465 410v-410h-110v40h-10q-1 -2 -4 -6.5t-13.5 -14.5t-22.5 -18t-32.5 -14.5t-42.5 -6.5q-65 0 -115 53t-50 127v250h110v-250q0 -34 24 -57t61 -23t66 27t29 58v245h110zM325 510l-150 65l40 85l140 -85z" />
    <glyph glyph-name="uacute" unicode="&#xfa;" 
d="M465 410v-410h-110v40h-10q-1 -2 -4 -6.5t-13.5 -14.5t-22.5 -18t-32.5 -14.5t-42.5 -6.5q-65 0 -115 53t-50 127v250h110v-250q0 -34 24 -57t61 -23t66 27t29 58v245h110zM385 575l-150 -65l-30 65l140 85z" />
    <glyph glyph-name="ucircumflex" unicode="&#xfb;" 
d="M465 410v-410h-110v40h-10q-1 -2 -4 -6.5t-13.5 -14.5t-22.5 -18t-32.5 -14.5t-42.5 -6.5q-65 0 -115 53t-50 127v250h110v-250q0 -34 24 -57t61 -23t66 27t29 58v245h110zM375 520l-110 50l-110 -50l-30 60l140 85l140 -85z" />
    <glyph glyph-name="udieresis" unicode="&#xfc;" 
d="M465 410v-410h-110v40h-10q-1 -2 -4 -6.5t-13.5 -14.5t-22.5 -18t-32.5 -14.5t-42.5 -6.5q-65 0 -115 53t-50 127v250h110v-250q0 -34 24 -57t61 -23t66 27t29 58v245h110zM240 590q0 -22 -19 -41t-41 -19t-41 19t-19 41t19 41t41 19t41 -19t19 -41zM420 590
q0 -22 -19 -41t-41 -19t-41 19t-19 41t19 41t41 19t41 -19t19 -41z" />
    <glyph glyph-name="yacute" unicode="&#xfd;" horiz-adv-x="450" 
d="M320 410h120l-265 -690h-120l110 280l-155 410h120l90 -250h10zM340 575l-150 -65l-30 65l140 85z" />
    <glyph glyph-name="thorn" unicode="&#xfe;" horiz-adv-x="540" 
d="M180 225v-40q0 -41 32 -73t73 -32q43 0 74 35t31 90t-31 90t-74 35q-41 0 -73 -32t-32 -73zM180 680v-310h10q4 7 12.5 17t40.5 26.5t72 16.5q74 0 132 -65t58 -160t-58 -160t-132 -65q-25 0 -47 6t-36 15t-24 18t-14 15l-4 6h-10v-320h-110v960h110z" />
    <glyph glyph-name="ydieresis" unicode="&#xff;" horiz-adv-x="450" 
d="M320 410h120l-265 -690h-120l110 280l-155 410h120l90 -250h10zM195 590q0 -22 -18.5 -41t-41.5 -19t-41.5 19t-18.5 41t18.5 41t41.5 19t41.5 -19t18.5 -41zM375 590q0 -22 -18.5 -41t-41.5 -19t-41.5 19t-18.5 41t18.5 41t41.5 19t41.5 -19t18.5 -41z" />
    <glyph glyph-name="Amacron" unicode="&#x100;" horiz-adv-x="640" 
d="M325 720l295 -720h-130l-40 100h-261l-39 -100h-130l295 720h10zM315 420l-80 -210h170l-80 210h-10zM210 800v90h235v-90h-235z" />
    <glyph glyph-name="amacron" unicode="&#x101;" horiz-adv-x="465" 
d="M300 155q-45 5 -105 5q-25 0 -40 -12t-15 -28t16.5 -28t48.5 -12q21 0 38.5 7.5t27.5 19t17 22.5t10 19zM215 430q82 0 138.5 -55.5t56.5 -134.5v-240h-110v40h-10q-1 -2 -4 -6.5t-13.5 -14.5t-22.5 -18t-32.5 -14.5t-42.5 -6.5q-67 0 -108.5 39.5t-41.5 100.5
q0 62 46 101t124 39q27 0 53 -5t39 -10l13 -5q0 37 -25.5 63.5t-59.5 26.5q-22 0 -43.5 -9t-31.5 -17l-10 -9l-65 75q6 7 17 17t50 26.5t83 16.5zM125 550v90h235v-90h-235z" />
    <glyph glyph-name="Abreve" unicode="&#x102;" horiz-adv-x="640" 
d="M325 720l295 -720h-130l-40 100h-261l-39 -100h-130l295 720h10zM315 420l-80 -210h170l-80 210h-10zM330 875q19 0 34.5 16.5t15.5 38.5h80q0 -60 -36.5 -97.5t-93.5 -37.5t-93.5 37.5t-36.5 97.5h80q0 -22 15.5 -38.5t34.5 -16.5z" />
    <glyph glyph-name="abreve" unicode="&#x103;" horiz-adv-x="465" 
d="M300 155q-45 5 -105 5q-25 0 -40 -12t-15 -28t16.5 -28t48.5 -12q21 0 38.5 7.5t27.5 19t17 22.5t10 19zM215 430q82 0 138.5 -55.5t56.5 -134.5v-240h-110v40h-10q-1 -2 -4 -6.5t-13.5 -14.5t-22.5 -18t-32.5 -14.5t-42.5 -6.5q-67 0 -108.5 39.5t-41.5 100.5
q0 62 46 101t124 39q27 0 53 -5t39 -10l13 -5q0 37 -25.5 63.5t-59.5 26.5q-22 0 -43.5 -9t-31.5 -17l-10 -9l-65 75q6 7 17 17t50 26.5t83 16.5zM240 605q19 0 34.5 16.5t15.5 38.5h80q0 -60 -36.5 -97.5t-93.5 -37.5t-93.5 37.5t-36.5 97.5h80q0 -22 15.5 -38.5
t34.5 -16.5z" />
    <glyph glyph-name="Aogonek" unicode="&#x104;" horiz-adv-x="640" 
d="M535 -225q-37 0 -63.5 25.5t-26.5 59.5q0 22 10.5 45t25 39t29 29.5t24.5 20.5l11 6h-55l-40 100h-261l-39 -100h-130l295 720h10l295 -720q-11 -8 -26.5 -21t-42 -45t-26.5 -54q0 -11 9 -20.5t21 -9.5q9 0 17.5 4t13.5 8l4 3l25 -65q-35 -25 -80 -25zM315 420l-80 -210
h170l-80 210h-10z" />
    <glyph glyph-name="aogonek" unicode="&#x105;" horiz-adv-x="465" 
d="M325 -225q-37 0 -63.5 25.5t-26.5 59.5q0 22 10.5 45t25 39t29 29.5t24.5 20.5l11 6h-35v40h-10q-1 -2 -4 -6.5t-13.5 -14.5t-22.5 -18t-32.5 -14.5t-42.5 -6.5q-67 0 -108.5 39.5t-41.5 100.5q0 62 46 101t124 39q27 0 53 -5t39 -10l13 -5q0 37 -25.5 63.5t-59.5 26.5
q-22 0 -43.5 -9t-31.5 -17l-10 -9l-65 75q6 7 17 17t50 26.5t83 16.5q82 0 138.5 -55.5t56.5 -134.5v-240q-11 -8 -26.5 -21t-42 -45t-26.5 -54q0 -11 9 -20.5t21 -9.5q9 0 17.5 4t13.5 8l4 3l25 -65q-35 -25 -80 -25zM300 155q-45 5 -105 5q-25 0 -40 -12t-15 -28t16.5 -28
t48.5 -12q21 0 38.5 7.5t27.5 19t17 22.5t10 19z" />
    <glyph glyph-name="Cacute" unicode="&#x106;" horiz-adv-x="710" 
d="M395 700q56 0 106.5 -16.5t82.5 -40t56 -47t34 -40.5l11 -16l-105 -60q-3 4 -8 11.5t-22.5 26.5t-37.5 33.5t-51.5 26.5t-65.5 12q-92 0 -161 -73.5t-69 -176.5t69 -176.5t161 -73.5q36 0 69.5 13t55.5 31t38.5 36.5t23.5 31.5l8 13l105 -60q-4 -7 -11 -19t-34 -42
t-58.5 -53t-84.5 -42t-112 -19q-147 0 -251 105t-104 255t104 255t251 105zM515 855l-150 -65l-30 65l140 85z" />
    <glyph glyph-name="cacute" unicode="&#x107;" horiz-adv-x="475" 
d="M260 80q31 0 56 17.5t34 34.5l10 18l95 -50q-2 -5 -6.5 -13t-21.5 -28.5t-37.5 -36.5t-55.5 -29t-74 -13q-94 0 -159.5 65.5t-65.5 159.5t65.5 159.5t159.5 65.5q38 0 71.5 -11.5t54 -27.5t36 -32t22.5 -27l6 -12l-95 -50q-1 2 -3.5 6.5t-11 14.5t-19 18t-27 14.5
t-34.5 6.5q-42 0 -76 -37t-34 -88t34 -88t76 -37zM370 565l-150 -65l-30 65l140 85z" />
    <glyph glyph-name="Ccircumflex" unicode="&#x108;" horiz-adv-x="710" 
d="M395 700q56 0 106.5 -16.5t82.5 -40t56 -47t34 -40.5l11 -16l-105 -60q-3 4 -8 11.5t-22.5 26.5t-37.5 33.5t-51.5 26.5t-65.5 12q-92 0 -161 -73.5t-69 -176.5t69 -176.5t161 -73.5q36 0 69.5 13t55.5 31t38.5 36.5t23.5 31.5l8 13l105 -60q-4 -7 -11 -19t-34 -42
t-58.5 -53t-84.5 -42t-112 -19q-147 0 -251 105t-104 255t104 255t251 105zM505 780l-110 50l-110 -50l-30 60l140 85l140 -85z" />
    <glyph glyph-name="ccircumflex" unicode="&#x109;" horiz-adv-x="475" 
d="M260 80q31 0 56 17.5t34 34.5l10 18l95 -50q-2 -5 -6.5 -13t-21.5 -28.5t-37.5 -36.5t-55.5 -29t-74 -13q-94 0 -159.5 65.5t-65.5 159.5t65.5 159.5t159.5 65.5q38 0 71.5 -11.5t54 -27.5t36 -32t22.5 -27l6 -12l-95 -50q-1 2 -3.5 6.5t-11 14.5t-19 18t-27 14.5
t-34.5 6.5q-42 0 -76 -37t-34 -88t34 -88t76 -37zM370 510l-110 50l-110 -50l-30 60l140 85l140 -85z" />
    <glyph glyph-name="Ccaron" unicode="&#x10c;" horiz-adv-x="710" 
d="M395 700q56 0 106.5 -16.5t82.5 -40t56 -47t34 -40.5l11 -16l-105 -60q-3 4 -8 11.5t-22.5 26.5t-37.5 33.5t-51.5 26.5t-65.5 12q-92 0 -161 -73.5t-69 -176.5t69 -176.5t161 -73.5q36 0 69.5 13t55.5 31t38.5 36.5t23.5 31.5l8 13l105 -60q-4 -7 -11 -19t-34 -42
t-58.5 -53t-84.5 -42t-112 -19q-147 0 -251 105t-104 255t104 255t251 105zM395 865l110 50l30 -60l-140 -85l-140 85l30 60z" />
    <glyph glyph-name="ccaron" unicode="&#x10d;" horiz-adv-x="475" 
d="M260 80q31 0 56 17.5t34 34.5l10 18l95 -50q-2 -5 -6.5 -13t-21.5 -28.5t-37.5 -36.5t-55.5 -29t-74 -13q-94 0 -159.5 65.5t-65.5 159.5t65.5 159.5t159.5 65.5q38 0 71.5 -11.5t54 -27.5t36 -32t22.5 -27l6 -12l-95 -50q-1 2 -3.5 6.5t-11 14.5t-19 18t-27 14.5
t-34.5 6.5q-42 0 -76 -37t-34 -88t34 -88t76 -37zM260 595l110 50l30 -60l-140 -85l-140 85l30 60z" />
    <glyph glyph-name="Dcaron" unicode="&#x10e;" horiz-adv-x="670" 
d="M285 570h-80v-460h80q87 0 153.5 68.5t66.5 161.5t-66.5 161.5t-153.5 68.5zM85 680h200q142 0 243.5 -100.5t101.5 -239.5t-101.5 -239.5t-243.5 -100.5h-200v680zM320 865l110 50l30 -60l-140 -85l-140 85l30 60z" />
    <glyph glyph-name="dcaron" unicode="&#x10f;" horiz-adv-x="670" 
d="M360 185v40q0 41 -32 73t-73 32q-43 0 -74 -35t-31 -90t31 -90t74 -35q41 0 73 32t32 73zM360 0v40h-10q-4 -7 -12.5 -17t-40.5 -26.5t-72 -16.5q-74 0 -132 65t-58 160t58 160t132 65q25 0 47 -6t36 -15t24 -18t14 -15l4 -6h10v310h110v-680h-110zM670 620
q0 -11 -4 -23.5t-8 -19.5l-3 -7l-60 -100h-40l35 100q-4 1 -11 4t-18 15.5t-11 30.5q0 22 19 41t41 19t41 -19t19 -41z" />
    <glyph glyph-name="Dcroat" unicode="&#x110;" horiz-adv-x="680" 
d="M95 680h200q142 0 243.5 -100.5t101.5 -239.5t-101.5 -239.5t-243.5 -100.5h-200v280h-60v110h60v290zM295 570h-80v-180h120v-110h-120v-170h80q87 0 153.5 68.5t66.5 161.5t-66.5 161.5t-153.5 68.5z" />
    <glyph glyph-name="dcroat" unicode="&#x111;" horiz-adv-x="560" 
d="M360 0v40h-10q-4 -7 -12.5 -17t-40.5 -26.5t-72 -16.5q-74 0 -132 64.5t-58 155.5t58 155.5t132 64.5q25 0 47 -6t36 -15t24 -18t14 -15l4 -6h10v120h-100v100h100v100h110v-100h70v-100h-70v-480h-110zM360 185v30q0 41 -32 73t-73 32q-42 0 -73.5 -34.5t-31.5 -85.5
t31.5 -85.5t73.5 -34.5q41 0 73 32t32 73z" />
    <glyph glyph-name="Emacron" unicode="&#x112;" 
d="M85 0v680h395v-110h-275v-170h195v-110h-195v-180h285v-110h-405zM175 800v90h235v-90h-235z" />
    <glyph glyph-name="emacron" unicode="&#x113;" horiz-adv-x="505" 
d="M430 165h-275q12 -36 40.5 -60.5t64.5 -24.5q31 0 56 15t34 30l10 15l95 -50q-2 -4 -6.5 -11.5t-21.5 -26.5t-37.5 -33.5t-55.5 -26.5t-74 -12q-94 0 -159.5 65.5t-65.5 159.5t65.5 159.5t159.5 65.5q90 0 152.5 -65t62.5 -155zM260 330q-67 0 -100 -75h200
q-33 75 -100 75zM145 550v90h235v-90h-235z" />
    <glyph glyph-name="Edotaccent" unicode="&#x116;" 
d="M85 0v680h395v-110h-275v-170h195v-110h-195v-180h285v-110h-405zM350 840q0 -26 -19.5 -45.5t-45.5 -19.5t-45.5 19.5t-19.5 45.5t19.5 45.5t45.5 19.5t45.5 -19.5t19.5 -45.5z" />
    <glyph glyph-name="edotaccent" unicode="&#x117;" horiz-adv-x="505" 
d="M430 165h-275q12 -36 40.5 -60.5t64.5 -24.5q31 0 56 15t34 30l10 15l95 -50q-2 -4 -6.5 -11.5t-21.5 -26.5t-37.5 -33.5t-55.5 -26.5t-74 -12q-94 0 -159.5 65.5t-65.5 159.5t65.5 159.5t159.5 65.5q90 0 152.5 -65t62.5 -155zM260 330q-67 0 -100 -75h200
q-33 75 -100 75zM325 595q0 -26 -19.5 -45.5t-45.5 -19.5t-45.5 19.5t-19.5 45.5t19.5 45.5t45.5 19.5t45.5 -19.5t19.5 -45.5z" />
    <glyph glyph-name="Eogonek" unicode="&#x118;" 
d="M85 0v680h395v-110h-275v-170h195v-110h-195v-180h285v-110q-11 -8 -26.5 -21t-42 -45t-26.5 -54q0 -11 9 -20.5t21 -9.5q9 0 17.5 4t13.5 8l4 3l25 -65q-35 -25 -80 -25q-37 0 -63.5 25.5t-26.5 59.5q0 22 10.5 45t25 39t29 29.5t24.5 20.5l11 6h-330z" />
    <glyph glyph-name="eogonek" unicode="&#x119;" horiz-adv-x="505" 
d="M270 -225q-37 0 -63.5 25.5t-26.5 59.5q0 62 72 120q-92 3 -154.5 68t-62.5 157q0 94 65.5 159.5t159.5 65.5q90 0 152.5 -65t62.5 -155l-45 -45h-275q12 -36 40.5 -60.5t64.5 -24.5q31 0 56 15t34 30l10 15l95 -50q-4 -7 -11 -17.5t-33.5 -35t-57.5 -38.5
q-12 -9 -30 -24.5t-40.5 -44.5t-22.5 -50q0 -11 9 -20.5t21 -9.5q9 0 17.5 4t12.5 8l5 3l25 -65q-35 -25 -80 -25zM260 330q-67 0 -100 -75h200q-33 75 -100 75z" />
    <glyph glyph-name="Ecaron" unicode="&#x11a;" 
d="M85 0v680h395v-110h-275v-170h195v-110h-195v-180h285v-110h-405zM290 870l110 50l30 -60l-140 -85l-140 85l30 60z" />
    <glyph glyph-name="ecaron" unicode="&#x11b;" horiz-adv-x="505" 
d="M430 165h-275q12 -36 40.5 -60.5t64.5 -24.5q31 0 56 15t34 30l10 15l95 -50q-2 -4 -6.5 -11.5t-21.5 -26.5t-37.5 -33.5t-55.5 -26.5t-74 -12q-94 0 -159.5 65.5t-65.5 159.5t65.5 159.5t159.5 65.5q90 0 152.5 -65t62.5 -155zM260 330q-67 0 -100 -75h200
q-33 75 -100 75zM265 605l110 50l30 -60l-140 -85l-140 85l30 60z" />
    <glyph glyph-name="Gbreve" unicode="&#x11e;" horiz-adv-x="755" 
d="M395 -20q-147 0 -251 105t-104 255t104 255t251 105q55 0 104 -16t81 -39t55.5 -45.5t34.5 -38.5l10 -16l-100 -60q-3 4 -8 11t-22.5 25.5t-37.5 32t-51.5 25t-65.5 11.5q-92 0 -161 -73.5t-69 -176.5t69 -176.5t161 -73.5q50 0 89.5 19.5t59 47.5t32.5 56t16 47l3 20
h120v-300h-20l-70 100h-10q-2 -4 -7 -11t-24 -24t-42 -30t-62.5 -24t-84.5 -11zM395 865q19 0 34.5 16.5t15.5 38.5h80q0 -60 -36.5 -97.5t-93.5 -37.5t-93.5 37.5t-36.5 97.5h80q0 -22 15.5 -38.5t34.5 -16.5z" />
    <glyph glyph-name="gbreve" unicode="&#x11f;" horiz-adv-x="485" 
d="M320 240q0 27 -23.5 48.5t-56.5 21.5t-56.5 -21.5t-23.5 -48.5t23.5 -48.5t56.5 -21.5t56.5 21.5t23.5 48.5zM185 76q-20 -6 -20 -26q0 -9 5 -15t10 -8l5 -2q30 5 55 5q101 0 160.5 -49t59.5 -116t-59.5 -116t-160.5 -49t-160.5 49t-59.5 116q0 33 18.5 63t37.5 44l19 13
v10q-4 2 -11 6.5t-18 20t-11 33.5t10 33t20 21l10 6v10q-6 4 -14 12t-22 37.5t-14 65.5q0 69 55.5 119.5t139.5 50.5h225v-100h-55v-10q25 -30 25 -70q0 -63 -56 -111.5t-139 -48.5zM345 -135q0 25 -28 45t-77 20t-77 -20t-28 -45t28 -45t77 -20t77 20t28 45zM250 585
q19 0 34.5 16.5t15.5 38.5h80q0 -60 -36.5 -97.5t-93.5 -37.5t-93.5 37.5t-36.5 97.5h80q0 -22 15.5 -38.5t34.5 -16.5z" />
    <glyph glyph-name="Gcommaaccent" unicode="&#x122;" horiz-adv-x="755" 
d="M395 -20q-147 0 -251 105t-104 255t104 255t251 105q55 0 104 -16t81 -39t55.5 -45.5t34.5 -38.5l10 -16l-100 -60q-3 4 -8 11t-22.5 25.5t-37.5 32t-51.5 25t-65.5 11.5q-92 0 -161 -73.5t-69 -176.5t69 -176.5t161 -73.5q50 0 89.5 19.5t59 47.5t32.5 56t16 47l3 20
h120v-300h-20l-70 100h-10q-2 -4 -7 -11t-24 -24t-42 -30t-62.5 -24t-84.5 -11zM445 -150q0 -11 -3.5 -23.5t-7.5 -19.5l-4 -7l-60 -100h-40l35 100q-4 1 -11 4t-18 15.5t-11 30.5q0 22 18.5 41t41.5 19t41.5 -19t18.5 -41z" />
    <glyph glyph-name="gcommaaccent" unicode="&#x123;" horiz-adv-x="485" 
d="M320 240q0 27 -23.5 48.5t-56.5 21.5t-56.5 -21.5t-23.5 -48.5t23.5 -48.5t56.5 -21.5t56.5 21.5t23.5 48.5zM185 76q-20 -6 -20 -26q0 -9 5 -15t10 -8l5 -2q30 5 55 5q101 0 160.5 -49t59.5 -116t-59.5 -116t-160.5 -49t-160.5 49t-59.5 116q0 33 18.5 63t37.5 44l19 13
v10q-4 2 -11 6.5t-18 20t-11 33.5t10 33t20 21l10 6v10q-6 4 -14 12t-22 37.5t-14 65.5q0 69 55.5 119.5t139.5 50.5h225v-100h-55v-10q25 -30 25 -70q0 -63 -56 -111.5t-139 -48.5zM345 -135q0 25 -28 45t-77 20t-77 -20t-28 -45t28 -45t77 -20t77 20t28 45zM205 550
q0 11 3.5 23.5t7.5 19.5l4 7l60 100h40l-35 -100q4 -1 11 -4t18 -15.5t11 -30.5q0 -22 -18.5 -41t-41.5 -19t-41.5 19t-18.5 41z" />
    <glyph glyph-name="Imacron" unicode="&#x12a;" horiz-adv-x="295" 
d="M90 0v680h120v-680h-120zM40 800v90h235v-90h-235z" />
    <glyph glyph-name="imacron" unicode="&#x12b;" horiz-adv-x="235" 
d="M0 550v90h235v-90h-235zM60 0v410h110v-410h-110z" />
    <glyph glyph-name="Iogonek" unicode="&#x12e;" horiz-adv-x="295" 
d="M90 0v680h120v-680q-11 -8 -26.5 -21t-42 -45t-26.5 -54q0 -11 9 -20.5t21 -9.5q9 0 17.5 4t13.5 8l4 3l25 -65q-35 -25 -80 -25q-37 0 -63.5 25.5t-26.5 59.5q0 22 10.5 45t25 39t29 29.5t24.5 20.5l11 6h-45z" />
    <glyph glyph-name="iogonek" unicode="&#x12f;" horiz-adv-x="235" 
d="M65 0v410h110v-410q-11 -8 -26.5 -21t-42 -45t-26.5 -54q0 -11 9 -20.5t21 -9.5q9 0 17.5 4t12.5 8l5 3l25 -65q-35 -25 -80 -25q-37 0 -63.5 25.5t-26.5 59.5q0 22 10.5 45t25 39t29 29.5t25.5 20.5l10 6h-35zM185 615q0 -26 -19.5 -45.5t-45.5 -19.5t-45.5 19.5
t-19.5 45.5t19.5 45.5t45.5 19.5t45.5 -19.5t19.5 -45.5z" />
    <glyph glyph-name="Idotaccent" unicode="&#x130;" horiz-adv-x="290" 
d="M85 0v680h120v-680h-120zM210 855q0 -26 -19.5 -45.5t-45.5 -19.5t-45.5 19.5t-19.5 45.5t19.5 45.5t45.5 19.5t45.5 -19.5t19.5 -45.5z" />
    <glyph glyph-name="dotlessi" unicode="&#x131;" horiz-adv-x="240" 
d="M65 0v410h110v-410h-110z" />
    <glyph glyph-name="Kcommaaccent" unicode="&#x136;" horiz-adv-x="600" 
d="M205 680v-680h-120v680h120zM560 680l-205 -320l225 -360h-130l-220 360l200 320h130zM375 -140q0 -11 -3.5 -23.5t-7.5 -19.5l-4 -7l-60 -100h-40l35 100q-4 1 -11 4t-18 15.5t-11 30.5q0 22 18.5 41t41.5 19t41.5 -19t18.5 -41z" />
    <glyph glyph-name="kcommaaccent" unicode="&#x137;" horiz-adv-x="470" 
d="M180 680v-680h-110v680h110zM440 410l-125 -200l140 -210h-120l-135 210l120 200h120zM300 -130q0 -11 -4 -23.5t-8 -19.5l-3 -7l-60 -100h-40l35 100q-4 1 -11 4t-18 15.5t-11 30.5q0 22 19 41t41 19t41 -19t19 -41z" />
    <glyph glyph-name="Lacute" unicode="&#x139;" horiz-adv-x="500" 
d="M205 110h265v-110h-385v680h120v-570zM290 825l-150 -65l-30 65l140 85z" />
    <glyph glyph-name="lacute" unicode="&#x13a;" horiz-adv-x="260" 
d="M75 0v680h110v-680h-110zM235 835l-150 -65l-30 65l140 85z" />
    <glyph glyph-name="Lcommaaccent" unicode="&#x13b;" horiz-adv-x="500" 
d="M205 110h265v-110h-385v680h120v-570zM335 -140q0 -11 -3.5 -23.5t-7.5 -19.5l-4 -7l-60 -100h-40l35 100q-4 1 -11 4t-18 15.5t-11 30.5q0 22 18.5 41t41.5 19t41.5 -19t18.5 -41z" />
    <glyph glyph-name="lcommaaccent" unicode="&#x13c;" horiz-adv-x="250" 
d="M75 0v680h110v-680h-110zM185 -150q0 -11 -3.5 -23.5t-7.5 -19.5l-4 -7l-60 -100h-40l35 100q-4 1 -11 4t-18 15.5t-11 30.5q0 22 18.5 41t41.5 19t41.5 -19t18.5 -41z" />
    <glyph glyph-name="Lcaron" unicode="&#x13d;" horiz-adv-x="500" 
d="M205 110h265v-110h-385v680h120v-570zM400 620q0 -11 -4 -23.5t-8 -19.5l-3 -7l-60 -100h-40l35 100q-4 1 -11 4t-18 15.5t-11 30.5q0 22 19 41t41 19t41 -19t19 -41z" />
    <glyph glyph-name="lcaron" unicode="&#x13e;" horiz-adv-x="360" 
d="M70 0v680h110v-680h-110zM360 620q0 -11 -4 -23.5t-8 -19.5l-3 -7l-60 -100h-40l35 100q-4 1 -11 4t-18 15.5t-11 30.5q0 22 19 41t41 19t41 -19t19 -41z" />
    <glyph glyph-name="Lslash" unicode="&#x141;" 
d="M45 220v110l70 30v320h120v-270l100 40v-110l-100 -40v-190h265v-110h-385v250z" />
    <glyph glyph-name="lslash" unicode="&#x142;" horiz-adv-x="310" 
d="M25 230v110l75 35v305h110v-255l75 35v-110l-75 -35v-315h-110v265z" />
    <glyph glyph-name="Nacute" unicode="&#x143;" horiz-adv-x="680" 
d="M465 280h10v400h120v-700h-20l-360 420h-10v-400h-120v700h20zM460 840l-150 -65l-30 65l140 85z" />
    <glyph glyph-name="nacute" unicode="&#x144;" horiz-adv-x="520" 
d="M65 0v410h110v-40h10q1 2 4 6.5t13.5 14.5t22.5 18t32.5 14.5t42.5 6.5q65 0 115 -53t50 -127v-250h-110v250q0 34 -24 57t-61 23t-66 -27t-29 -58v-245h-110zM385 575l-150 -65l-30 65l140 85z" />
    <glyph glyph-name="Ncommaaccent" unicode="&#x145;" horiz-adv-x="680" 
d="M465 280h10v400h120v-700h-20l-360 420h-10v-400h-120v700h20zM410 -140q0 -11 -4 -23.5t-8 -19.5l-3 -7l-60 -100h-40l35 100q-4 1 -11 4t-18 15.5t-11 30.5q0 22 19 41t41 19t41 -19t19 -41z" />
    <glyph glyph-name="ncommaaccent" unicode="&#x146;" horiz-adv-x="520" 
d="M65 0v410h110v-40h10q1 2 4 6.5t13.5 14.5t22.5 18t32.5 14.5t42.5 6.5q65 0 115 -53t50 -127v-250h-110v250q0 34 -24 57t-61 23t-66 -27t-29 -58v-245h-110zM325 -140q0 -11 -3.5 -23.5t-7.5 -19.5l-4 -7l-60 -100h-40l35 100q-4 1 -11 4t-18 15.5t-11 30.5
q0 22 18.5 41t41.5 19t41.5 -19t18.5 -41z" />
    <glyph glyph-name="Ncaron" unicode="&#x147;" horiz-adv-x="680" 
d="M465 280h10v400h120v-700h-20l-360 420h-10v-400h-120v700h20zM350 860l110 50l30 -60l-140 -85l-140 85l30 60z" />
    <glyph glyph-name="ncaron" unicode="&#x148;" horiz-adv-x="520" 
d="M65 0v410h110v-40h10q1 2 4 6.5t13.5 14.5t22.5 18t32.5 14.5t42.5 6.5q65 0 115 -53t50 -127v-250h-110v250q0 34 -24 57t-61 23t-66 -27t-29 -58v-245h-110zM275 615l110 50l30 -60l-140 -85l-140 85l30 60z" />
    <glyph glyph-name="Omacron" unicode="&#x14c;" horiz-adv-x="790" 
d="M40 340q0 150 104 255t251 105t251 -105t104 -255t-104 -255t-251 -105t-251 105t-104 255zM625 340q0 103 -69 176.5t-161 73.5t-161 -73.5t-69 -176.5t69 -176.5t161 -73.5t161 73.5t69 176.5zM290 820v90h235v-90h-235z" />
    <glyph glyph-name="omacron" unicode="&#x14d;" horiz-adv-x="520" 
d="M370 205q0 51 -34 88t-76 37t-76 -37t-34 -88t34 -88t76 -37t76 37t34 88zM35 205q0 94 65.5 159.5t159.5 65.5t159.5 -65.5t65.5 -159.5t-65.5 -159.5t-159.5 -65.5t-159.5 65.5t-65.5 159.5zM145 550v90h235v-90h-235z" />
    <glyph glyph-name="Ohungarumlaut" unicode="&#x150;" horiz-adv-x="790" 
d="M40 340q0 150 104 255t251 105t251 -105t104 -255t-104 -255t-251 -105t-251 105t-104 255zM625 340q0 103 -69 176.5t-161 73.5t-161 -73.5t-69 -176.5t69 -176.5t161 -73.5t161 73.5t69 176.5zM370 935l65 -50l-95 -105l-50 35zM515 935l65 -50l-95 -105l-50 35z" />
    <glyph glyph-name="ohungarumlaut" unicode="&#x151;" horiz-adv-x="520" 
d="M370 205q0 51 -34 88t-76 37t-76 -37t-34 -88t34 -88t76 -37t76 37t34 88zM35 205q0 94 65.5 159.5t159.5 65.5t159.5 -65.5t65.5 -159.5t-65.5 -159.5t-159.5 -65.5t-159.5 65.5t-65.5 159.5zM225 665l65 -50l-95 -105l-50 35zM370 665l65 -50l-95 -105l-50 35z" />
    <glyph glyph-name="OE" unicode="&#x152;" horiz-adv-x="860" 
d="M385 680h425v-110h-275v-170h195v-110h-195v-180h285v-110h-435q-142 0 -243.5 100.5t-101.5 239.5t101.5 239.5t243.5 100.5zM415 570h-30q-87 0 -153.5 -68.5t-66.5 -161.5t66.5 -161.5t153.5 -68.5h30v460z" />
    <glyph glyph-name="oe" unicode="&#x153;" horiz-adv-x="815" 
d="M430 60h-10q-2 -3 -5 -8.5t-16.5 -19.5t-30 -24.5t-45.5 -19t-63 -8.5q-94 0 -159.5 65.5t-65.5 159.5t65.5 159.5t159.5 65.5q34 0 62.5 -8t46 -20t29.5 -24t17 -20l5 -8h10q2 3 5 8.5t16 19.5t28.5 24.5t42.5 19t58 8.5q83 0 144 -65t61 -155l-45 -45h-250
q8 -38 32.5 -61.5t57.5 -23.5q29 0 52.5 15t33.5 30l9 15l95 -50q-2 -4 -6.5 -11.5t-21.5 -26.5t-37 -33.5t-53.5 -26.5t-71.5 -12q-31 0 -57.5 8t-43 20t-28 24t-16.5 20zM150 205q0 -51 34 -88t76 -37t76 37t34 88t-34 88t-76 37t-76 -37t-34 -88zM580 330q-65 0 -90 -75
h180q-25 75 -90 75z" />
    <glyph glyph-name="Racute" unicode="&#x154;" horiz-adv-x="625" 
d="M450 285v-10l155 -275h-130l-140 250h-130v-250h-120v680h230q110 0 180 -63t70 -152q0 -35 -12 -66.5t-28.5 -51.5t-33.5 -34.5t-29 -21.5t-12 -6zM205 360h110q55 0 90 31t35 74t-35 74t-90 31h-110v-210zM440 835l-150 -65l-30 65l140 85z" />
    <glyph glyph-name="racute" unicode="&#x155;" horiz-adv-x="345" 
d="M270 325q-38 0 -66.5 -28.5t-28.5 -66.5v-230h-110v410h110v-40h10q1 2 4 6.5t13 14.5t21 18t29 14.5t38 6.5q11 0 22.5 -2.5t17.5 -5.5l5 -2l-20 -105q-20 10 -45 10zM315 575l-150 -65l-30 65l140 85z" />
    <glyph glyph-name="Rcommaaccent" unicode="&#x156;" horiz-adv-x="625" 
d="M450 285v-10l155 -275h-130l-140 250h-130v-250h-120v680h230q110 0 180 -63t70 -152q0 -35 -12 -66.5t-28.5 -51.5t-33.5 -34.5t-29 -21.5t-12 -6zM205 360h110q55 0 90 31t35 74t-35 74t-90 31h-110v-210zM385 -120q0 -11 -3.5 -23.5t-7.5 -19.5l-4 -7l-60 -100h-40
l35 100q-4 1 -11 4t-18 15.5t-11 30.5q0 22 18.5 41t41.5 19t41.5 -19t18.5 -41z" />
    <glyph glyph-name="rcommaaccent" unicode="&#x157;" horiz-adv-x="350" 
d="M275 325q-37 0 -66 -28.5t-29 -66.5v-230h-110v410h110v-40h10q1 2 4 6.5t13 14.5t21 18t29 14.5t38 6.5q11 0 22.5 -2.5t16.5 -5.5l6 -2l-20 -105q-20 10 -45 10zM185 -160q0 -11 -3.5 -23.5t-7.5 -19.5l-4 -7l-60 -100h-40l35 100q-4 1 -11 4t-18 15.5t-11 30.5
q0 22 18.5 41t41.5 19t41.5 -19t18.5 -41z" />
    <glyph glyph-name="Rcaron" unicode="&#x158;" horiz-adv-x="625" 
d="M450 285v-10l155 -275h-130l-140 250h-130v-250h-120v680h230q110 0 180 -63t70 -152q0 -35 -12 -66.5t-28.5 -51.5t-33.5 -34.5t-29 -21.5t-12 -6zM205 360h110q55 0 90 31t35 74t-35 74t-90 31h-110v-210zM320 865l110 50l30 -60l-140 -85l-140 85l30 60z" />
    <glyph glyph-name="rcaron" unicode="&#x159;" horiz-adv-x="345" 
d="M270 325q-38 0 -66.5 -28.5t-28.5 -66.5v-230h-110v410h110v-40h10q1 2 4 6.5t13 14.5t21 18t29 14.5t38 6.5q11 0 22.5 -2.5t17.5 -5.5l5 -2l-20 -105q-20 10 -45 10zM195 614l110 50l30 -60l-140 -85l-140 85l30 60z" />
    <glyph glyph-name="Sacute" unicode="&#x15a;" horiz-adv-x="544" 
d="M283 700q39 0 75 -12t59.5 -29t41.5 -33.5t26 -28.5l8 -12l-90 -65q-6 8 -16 19.5t-38.5 31t-55.5 19.5q-44 0 -72 -26t-28 -64q0 -33 32 -57.5t77.5 -44t91 -43.5t77.5 -67t32 -103q0 -81 -68 -143t-167 -62q-48 0 -90.5 14.5t-69.5 35t-47.5 41t-28.5 35.5l-9 14l90 65
q2 -4 6.5 -10.5t18.5 -22.5t30 -28.5t40.5 -23t49.5 -10.5q51 0 85.5 31.5t34.5 73.5q0 33 -32 57.5t-77.5 44t-91 43.5t-77.5 67t-32 103q0 73 63.5 131.5t151.5 58.5zM418 845l-150 -65l-30 65l140 85z" />
    <glyph glyph-name="sacute" unicode="&#x15b;" horiz-adv-x="400" 
d="M190 80q29 0 44.5 12.5t15.5 32.5q0 15 -21.5 24.5t-52.5 18.5t-62 22t-52.5 42.5t-21.5 72.5q0 48 46 86.5t114 38.5q49 0 90 -17.5t58 -34.5l17 -18l-75 -70q-3 4 -9.5 11t-27.5 18t-43 11q-50 0 -50 -35q0 -15 21.5 -24.5t52.5 -18.5t62 -22t52.5 -42.5t21.5 -72.5
q0 -55 -47 -95t-123 -40q-34 0 -65 8t-52 20t-37 24t-24 20l-7 8l75 70q4 -6 12.5 -14t34.5 -22t53 -14zM320 565l-150 -65l-30 65l140 85z" />
    <glyph glyph-name="Scedilla" unicode="&#x15e;" horiz-adv-x="545" 
d="M285 700q39 0 75 -12t59.5 -29t41.5 -33.5t26 -28.5l8 -12l-90 -65q-6 8 -16 19.5t-38.5 31t-55.5 19.5q-44 0 -72 -26t-28 -64q0 -33 32 -57.5t77.5 -44t91 -43.5t77.5 -67t32 -103q0 -75 -59.5 -134.5t-148.5 -69.5l-12 -41q31 -8 53 -32.5t22 -57.5q0 -42 -32 -71
t-83 -29q-20 0 -40 7.5t-30 14.5l-10 8l30 60q25 -20 50 -20q18 0 29 9t11 21t-10.5 21t-25.5 9h-49l32 102q-40 5 -76 21t-59 35.5t-40 38t-25 31.5l-7 12l90 65q2 -4 6.5 -10.5t18.5 -22.5t30 -28.5t40.5 -23t49.5 -10.5q51 0 85.5 31.5t34.5 73.5q0 33 -32 57.5t-77.5 44
t-91 43.5t-77.5 67t-32 103q0 73 63.5 131.5t151.5 58.5z" />
    <glyph glyph-name="scedilla" unicode="&#x15f;" horiz-adv-x="400" 
d="M190 80q29 0 44.5 12.5t15.5 32.5q0 15 -21 24.5t-51 18.5t-60.5 22t-51.5 42.5t-21 72.5q0 51 44 88t116 37q34 0 63 -7t47 -17.5t31 -21t18 -17.5l6 -7l-70 -65q-30 35 -90 35q-50 0 -50 -35q0 -15 21.5 -24.5t52.5 -18.5t62 -22t52.5 -42.5t21.5 -72.5
q0 -50 -42 -88.5t-108 -46.5l-10 -30q70 -18 70 -90q0 -38 -30.5 -66.5t-74.5 -28.5q-20 0 -40 7.5t-30 15.5l-10 7l30 50q20 -15 49 -15q15 0 25.5 9t10.5 21t-10.5 21t-25.5 9h-49l25 95q-40 7 -73.5 25.5t-47.5 33.5l-14 16l75 70q4 -6 12.5 -14t34.5 -22t53 -14z" />
    <glyph glyph-name="Scaron" unicode="&#x160;" horiz-adv-x="545" 
d="M285 700q39 0 75 -12t59.5 -29t41.5 -33.5t26 -28.5l8 -12l-90 -65q-6 8 -16 19.5t-38.5 31t-55.5 19.5q-44 0 -72 -26t-28 -64q0 -33 32 -57.5t77.5 -44t91 -43.5t77.5 -67t32 -103q0 -81 -68 -143t-167 -62q-48 0 -90.5 14.5t-69.5 35t-47.5 41t-28.5 35.5l-9 14l90 65
q2 -4 6.5 -10.5t18.5 -22.5t30 -28.5t40.5 -23t49.5 -10.5q51 0 85.5 31.5t34.5 73.5q0 33 -32 57.5t-77.5 44t-91 43.5t-77.5 67t-32 103q0 73 63.5 131.5t151.5 58.5zM295 875l110 50l30 -60l-140 -85l-140 85l30 60z" />
    <glyph glyph-name="scaron" unicode="&#x161;" horiz-adv-x="400" 
d="M190 80q29 0 44.5 12.5t15.5 32.5q0 15 -21.5 24.5t-52.5 18.5t-62 22t-52.5 42.5t-21.5 72.5q0 48 46 86.5t114 38.5q49 0 90 -17.5t58 -34.5l17 -18l-75 -70q-3 4 -9.5 11t-27.5 18t-43 11q-50 0 -50 -35q0 -15 21.5 -24.5t52.5 -18.5t62 -22t52.5 -42.5t21.5 -72.5
q0 -55 -47 -95t-123 -40q-34 0 -65 8t-52 20t-37 24t-24 20l-7 8l75 70q4 -6 12.5 -14t34.5 -22t53 -14zM200 595l110 50l30 -60l-140 -85l-140 85l30 60z" />
    <glyph glyph-name="Tcommaaccent" unicode="&#x162;" horiz-adv-x="520" 
d="M495 570h-175v-570h-120v570h-175v110h470v-110zM315 -140q0 -11 -3.5 -23.5t-7.5 -19.5l-4 -7l-60 -100h-40l35 100q-4 1 -11 4t-18 15.5t-11 30.5q0 22 18.5 41t41.5 19t41.5 -19t18.5 -41z" />
    <glyph glyph-name="tcommaaccent" unicode="&#x163;" horiz-adv-x="360" 
d="M20 310v100h65v150h110v-150h105v-100h-105v-165q0 -29 16 -47t39 -18q11 0 22.5 5t17.5 10l5 5l35 -95q-35 -25 -90 -25q-64 0 -109.5 47.5t-45.5 117.5v165h-65zM265 -150q0 -11 -3.5 -23.5t-7.5 -19.5l-4 -7l-60 -100h-40l35 100q-4 1 -11 4t-18 15.5t-11 30.5
q0 22 18.5 41t41.5 19t41.5 -19t18.5 -41z" />
    <glyph glyph-name="Tcaron" unicode="&#x164;" horiz-adv-x="520" 
d="M495 570h-175v-570h-120v570h-175v110h470v-110zM260 865l110 50l30 -60l-140 -85l-140 85l30 60z" />
    <glyph glyph-name="tcaron" unicode="&#x165;" horiz-adv-x="415" 
d="M20 310v100h65v150h110v-150h105v-100h-105v-165q0 -29 16 -47t39 -18q11 0 22.5 5t17.5 10l5 5l35 -95q-35 -25 -90 -25q-64 0 -109.5 47.5t-45.5 117.5v165h-65zM415 620q0 -11 -3.5 -23.5t-7.5 -19.5l-4 -7l-60 -100h-40l35 100q-4 1 -11 4t-18 15.5t-11 30.5
q0 22 18.5 41t41.5 19t41.5 -19t18.5 -41z" />
    <glyph glyph-name="Umacron" unicode="&#x16a;" horiz-adv-x="660" 
d="M200 680v-445q0 -63 38 -104t92 -41t92 41t38 104v445h120v-445q0 -108 -72.5 -181.5t-177.5 -73.5t-177.5 73.5t-72.5 181.5v445h120zM215 790v90h235v-90h-235z" />
    <glyph glyph-name="umacron" unicode="&#x16b;" 
d="M465 410v-410h-110v40h-10q-1 -2 -4 -6.5t-13.5 -14.5t-22.5 -18t-32.5 -14.5t-42.5 -6.5q-65 0 -115 53t-50 127v250h110v-250q0 -34 24 -57t61 -23t66 27t29 58v245h110zM155 550v90h235v-90h-235z" />
    <glyph glyph-name="Uring" unicode="&#x16e;" horiz-adv-x="670" 
d="M205 680v-445q0 -63 38 -104t92 -41t92 41t38 104v445h120v-445q0 -108 -72.5 -181.5t-177.5 -73.5t-177.5 73.5t-72.5 181.5v445h120zM445 855q0 -42 -32.5 -73.5t-77.5 -31.5t-77.5 31.5t-32.5 73.5t32.5 73.5t77.5 31.5t77.5 -31.5t32.5 -73.5zM380 855q0 19 -13 32
t-32 13t-32 -13t-13 -32t13 -32t32 -13t32 13t13 32z" />
    <glyph glyph-name="uring" unicode="&#x16f;" 
d="M465 410v-410h-110v40h-10q-1 -2 -4 -6.5t-13.5 -14.5t-22.5 -18t-32.5 -14.5t-42.5 -6.5q-65 0 -115 53t-50 127v250h110v-250q0 -34 24 -57t61 -23t66 27t29 58v245h110zM380 595q0 -42 -32.5 -73.5t-77.5 -31.5t-77.5 31.5t-32.5 73.5t32.5 73.5t77.5 31.5t77.5 -31.5
t32.5 -73.5zM315 595q0 19 -13 32t-32 13t-32 -13t-13 -32t13 -32t32 -13t32 13t13 32z" />
    <glyph glyph-name="Uhungarumlaut" unicode="&#x170;" horiz-adv-x="670" 
d="M205 680v-445q0 -63 38 -104t92 -41t92 41t38 104v445h120v-445q0 -108 -72.5 -181.5t-177.5 -73.5t-177.5 73.5t-72.5 181.5v445h120zM300 935l65 -50l-95 -105l-50 35zM445 935l65 -50l-95 -105l-50 35z" />
    <glyph glyph-name="uhungarumlaut" unicode="&#x171;" 
d="M465 410v-410h-110v40h-10q-1 -2 -4 -6.5t-13.5 -14.5t-22.5 -18t-32.5 -14.5t-42.5 -6.5q-65 0 -115 53t-50 127v250h110v-250q0 -34 24 -57t61 -23t66 27t29 58v245h110zM230 665l65 -50l-95 -105l-50 35zM375 665l65 -50l-95 -105l-50 35z" />
    <glyph glyph-name="Uogonek" unicode="&#x172;" horiz-adv-x="660" 
d="M325 -225q-37 0 -63.5 25.5t-26.5 59.5q0 61 73 121q-98 8 -163 79.5t-65 174.5v445h120v-445q0 -63 38 -104t92 -41t92 41t38 104v445h120v-445q0 -90 -52 -158t-134 -89q-79 -64 -79 -108q0 -11 9 -20.5t21 -9.5q9 0 17.5 4t13.5 8l4 3l25 -65q-35 -25 -80 -25z" />
    <glyph glyph-name="uogonek" unicode="&#x173;" 
d="M380 -225q-37 0 -63.5 25.5t-26.5 59.5q0 22 10.5 45t25 39t29 29.5t25.5 20.5l10 6h-35v40h-10q-1 -2 -4 -6.5t-13.5 -14.5t-22.5 -18t-32.5 -14.5t-42.5 -6.5q-65 0 -115 53t-50 127v250h110v-250q0 -34 24 -57t61 -23t66 27t29 58v245h110v-410q-11 -8 -26.5 -21
t-42 -45t-26.5 -54q0 -11 9 -20.5t21 -9.5q9 0 17.5 4t12.5 8l5 3l25 -65q-35 -25 -80 -25z" />
    <glyph glyph-name="Ydieresis" unicode="&#x178;" horiz-adv-x="580" 
d="M230 240l-220 440h135l140 -285h10l140 285h135l-220 -440v-240h-120v240zM260 850q0 -22 -19 -41t-41 -19t-41 19t-19 41t19 41t41 19t41 -19t19 -41zM440 850q0 -22 -19 -41t-41 -19t-41 19t-19 41t19 41t41 19t41 -19t19 -41z" />
    <glyph glyph-name="Zacute" unicode="&#x179;" horiz-adv-x="535" 
d="M500 0h-475v20l295 540v10h-270v110h460v-20l-295 -540v-10h285v-110zM395 855l-150 -65l-30 65l140 85z" />
    <glyph glyph-name="zacute" unicode="&#x17a;" horiz-adv-x="400" 
d="M20 0v10l175 290v10h-165v100h350v-10l-175 -290v-10h165v-100h-350zM330 565l-150 -65l-30 65l140 85z" />
    <glyph glyph-name="Zdotaccent" unicode="&#x17b;" horiz-adv-x="535" 
d="M500 0h-475v20l295 540v10h-270v110h460v-20l-295 -540v-10h285v-110zM350 865q0 -26 -19.5 -45.5t-45.5 -19.5t-45.5 19.5t-19.5 45.5t19.5 45.5t45.5 19.5t45.5 -19.5t19.5 -45.5z" />
    <glyph glyph-name="zdotaccent" unicode="&#x17c;" horiz-adv-x="400" 
d="M20 0v10l175 290v10h-165v100h350v-10l-175 -290v-10h165v-100h-350zM270 585q0 -26 -19.5 -45.5t-45.5 -19.5t-45.5 19.5t-19.5 45.5t19.5 45.5t45.5 19.5t45.5 -19.5t19.5 -45.5z" />
    <glyph glyph-name="Zcaron" unicode="&#x17d;" horiz-adv-x="535" 
d="M500 0h-475v20l295 540v10h-270v110h460v-20l-295 -540v-10h285v-110zM285 885l110 50l30 -60l-140 -85l-140 85l30 60z" />
    <glyph glyph-name="zcaron" unicode="&#x17e;" horiz-adv-x="400" 
d="M20 0v10l175 290v10h-165v100h350v-10l-175 -290v-10h165v-100h-350zM200 605l110 50l30 -60l-140 -85l-140 85l30 60z" />
    <glyph glyph-name="florin" unicode="&#x192;" horiz-adv-x="340" 
d="M40 310v100h65v145q0 70 45.5 117.5t109.5 47.5q24 0 46.5 -6t33.5 -12l10 -7l-35 -95q-20 20 -45 20q-23 0 -39 -18t-16 -47v-145h105v-100h-105v-435q0 -70 -45.5 -117.5t-109.5 -47.5q-22 0 -44.5 6t-33.5 12l-12 7l35 95q20 -20 45 -20q23 0 39 18t16 47v435h-65z
" />
    <glyph glyph-name="Scommaaccent" unicode="&#x218;" horiz-adv-x="545" 
d="M285 700q39 0 75 -12t59.5 -29t41.5 -33.5t26 -28.5l8 -12l-90 -65q-6 8 -16 19.5t-38.5 31t-55.5 19.5q-44 0 -72 -26t-28 -64q0 -33 32 -57.5t77.5 -44t91 -43.5t77.5 -67t32 -103q0 -81 -68 -143t-167 -62q-48 0 -90.5 14.5t-69.5 35t-47.5 41t-28.5 35.5l-9 14l90 65
q2 -4 6.5 -10.5t18.5 -22.5t30 -28.5t40.5 -23t49.5 -10.5q51 0 85.5 31.5t34.5 73.5q0 33 -32 57.5t-77.5 44t-91 43.5t-77.5 67t-32 103q0 73 63.5 131.5t151.5 58.5zM325 -150q0 -11 -3.5 -23.5t-7.5 -19.5l-4 -7l-60 -100h-40l35 100q-4 1 -11 4t-18 15.5t-11 30.5
q0 22 18.5 41t41.5 19t41.5 -19t18.5 -41z" />
    <glyph glyph-name="scommaaccent" unicode="&#x219;" horiz-adv-x="400" 
d="M190 80q29 0 44.5 12.5t15.5 32.5q0 15 -21.5 24.5t-52.5 18.5t-62 22t-52.5 42.5t-21.5 72.5q0 48 46 86.5t114 38.5q49 0 90 -17.5t58 -34.5l17 -18l-75 -70q-3 4 -9.5 11t-27.5 18t-43 11q-50 0 -50 -35q0 -15 21.5 -24.5t52.5 -18.5t62 -22t52.5 -42.5t21.5 -72.5
q0 -55 -47 -95t-123 -40q-34 0 -65 8t-52 20t-37 24t-24 20l-7 8l75 70q4 -6 12.5 -14t34.5 -22t53 -14zM255 -150q0 -11 -3.5 -23.5t-7.5 -19.5l-4 -7l-60 -100h-40l35 100q-4 1 -11 4t-18 15.5t-11 30.5q0 22 18.5 41t41.5 19t41.5 -19t18.5 -41z" />
    <glyph glyph-name="afii57929" unicode="&#x2bc;" horiz-adv-x="180" 
d="M150 620q0 -11 -4 -23.5t-8 -19.5l-3 -7l-60 -100h-40l35 100q-4 1 -11 4t-18 15.5t-11 30.5q0 22 19 41t41 19t41 -19t19 -41z" />
    <glyph glyph-name="circumflex" unicode="&#x2c6;" horiz-adv-x="340" 
d="M280 540l-110 50l-110 -50l-30 60l140 85l140 -85z" />
    <glyph glyph-name="caron" unicode="&#x2c7;" horiz-adv-x="340" 
d="M170 635l110 50l30 -60l-140 -85l-140 85l30 60z" />
    <glyph glyph-name="breve" unicode="&#x2d8;" horiz-adv-x="320" 
d="M160 630q19 0 34.5 16.5t15.5 38.5h80q0 -60 -36.5 -97.5t-93.5 -37.5t-93.5 37.5t-36.5 97.5h80q0 -22 15.5 -38.5t34.5 -16.5z" />
    <glyph glyph-name="dotaccent" unicode="&#x2d9;" horiz-adv-x="190" 
d="M160 615q0 -26 -19.5 -45.5t-45.5 -19.5t-45.5 19.5t-19.5 45.5t19.5 45.5t45.5 19.5t45.5 -19.5t19.5 -45.5z" />
    <glyph glyph-name="ring" unicode="&#x2da;" horiz-adv-x="280" 
d="M250 590q0 -42 -32.5 -73.5t-77.5 -31.5t-77.5 31.5t-32.5 73.5t32.5 73.5t77.5 31.5t77.5 -31.5t32.5 -73.5zM185 590q0 19 -13 32t-32 13t-32 -13t-13 -32t13 -32t32 -13t32 13t13 32z" />
    <glyph glyph-name="ogonek" unicode="&#x2db;" horiz-adv-x="235" 
d="M120 -225q-37 0 -63.5 25.5t-26.5 59.5q0 22 10.5 45t25 39t29 29.5t25.5 20.5l10 6h75q-11 -8 -26.5 -21t-42 -45t-26.5 -54q0 -11 9 -20.5t21 -9.5q9 0 17.5 4t12.5 8l5 3l25 -65q-35 -25 -80 -25z" />
    <glyph glyph-name="tilde" unicode="&#x2dc;" horiz-adv-x="310" 
d="M125 590q-20 0 -20 -30l-75 25q0 43 22 69t53 26q19 0 44 -15t36 -15q20 0 20 30l75 -25q0 -43 -22 -69t-53 -26q-19 0 -44 15t-36 15z" />
    <glyph glyph-name="hungarumlaut" unicode="&#x2dd;" horiz-adv-x="350" 
d="M110 680l65 -50l-95 -105l-50 35zM255 680l65 -50l-95 -105l-50 35z" />
    <glyph glyph-name="afii10023" unicode="&#x401;" 
d="M85 0v680h395v-110h-275v-170h195v-110h-195v-180h285v-110h-405zM265 850q0 -22 -18.5 -41t-41.5 -19t-41.5 19t-18.5 41t18.5 41t41.5 19t41.5 -19t18.5 -41zM445 850q0 -22 -18.5 -41t-41.5 -19t-41.5 19t-18.5 41t18.5 41t41.5 19t41.5 -19t18.5 -41z" />
    <glyph glyph-name="afii10051" unicode="&#x402;" horiz-adv-x="685" 
d="M420 680v-110h-160v-170q60 30 130 30q102 0 168.5 -69.5t66.5 -180.5v-85q0 -70 -45.5 -117.5t-109.5 -47.5q-24 0 -46.5 6t-33.5 12l-10 7l35 95q20 -20 45 -20q16 0 30.5 18.5t14.5 46.5v85q0 63 -35.5 101.5t-89.5 38.5q-27 0 -57 -7.5t-47 -14.5l-16 -8v-290h-120
v570h-130v110h410z" />
    <glyph glyph-name="afii10052" unicode="&#x403;" horiz-adv-x="480" 
d="M460 570h-255v-570h-120v680h375v-110zM395 830l-150 -65l-30 65l140 85z" />
    <glyph glyph-name="afii10053" unicode="&#x404;" horiz-adv-x="710" 
d="M395 700q56 0 106.5 -16.5t82.5 -40t56 -47t34 -40.5l11 -16l-105 -60q-3 4 -8 11.5t-22.5 26.5t-37.5 33.5t-51.5 26.5t-65.5 12q-84 0 -147 -57t-78 -138h250v-110h-250q15 -81 78 -138t147 -57q36 0 69.5 13t55.5 31t38.5 36.5t23.5 31.5l8 13l105 -60q-4 -7 -11 -19
t-34 -42t-58.5 -53t-84.5 -42t-112 -19q-147 0 -251 105t-104 255t104 255t251 105z" />
    <glyph glyph-name="afii10054" unicode="&#x405;" horiz-adv-x="545" 
d="M285 700q39 0 75 -12t59.5 -29t41.5 -33.5t26 -28.5l8 -12l-90 -65q-6 8 -16 19.5t-38.5 31t-55.5 19.5q-44 0 -72 -26t-28 -64q0 -33 32 -57.5t77.5 -44t91 -43.5t77.5 -67t32 -103q0 -81 -68 -143t-167 -62q-48 0 -90.5 14.5t-69.5 35t-47.5 41t-28.5 35.5l-9 14l90 65
q2 -4 6.5 -10.5t18.5 -22.5t30 -28.5t40.5 -23t49.5 -10.5q51 0 85.5 31.5t34.5 73.5q0 33 -32 57.5t-77.5 44t-91 43.5t-77.5 67t-32 103q0 73 63.5 131.5t151.5 58.5z" />
    <glyph glyph-name="afii10055" unicode="&#x406;" horiz-adv-x="290" 
d="M85 0v680h120v-680h-120z" />
    <glyph glyph-name="afii10056" unicode="&#x407;" horiz-adv-x="300" 
d="M90 0v680h120v-680h-120zM120 850q0 -22 -19 -41t-41 -19t-41 19t-19 41t19 41t41 19t41 -19t19 -41zM300 850q0 -22 -19 -41t-41 -19t-41 19t-19 41t19 41t41 19t41 -19t19 -41z" />
    <glyph glyph-name="afii10057" unicode="&#x408;" horiz-adv-x="455" 
d="M20 35l50 91q40 -36 85 -36q42 0 71 32t29 83v365h-175v110h295v-475q0 -100 -59.5 -162.5t-150.5 -62.5q-42 0 -78.5 14t-51.5 28z" />
    <glyph glyph-name="afii10058" unicode="&#x409;" horiz-adv-x="965" 
d="M925 230q0 -92 -75 -161t-185 -69h-195v570h-180l-40 -380q-11 -103 -59.5 -156.5t-125.5 -53.5q-16 0 -32 5t-25 10l-8 5l15 110q20 -10 40 -10q27 0 49 25t26 65l50 490h410v-220h75q110 0 185 -69t75 -161zM590 110h75q59 0 97 35t38 85t-38 85t-97 35h-75v-240z" />
    <glyph glyph-name="afii10059" unicode="&#x40a;" horiz-adv-x="950" 
d="M910 210q0 -85 -70.5 -147.5t-179.5 -62.5h-205v310h-250v-310h-120v680h120v-260h250v260h120v-260h85q109 0 179.5 -62.5t70.5 -147.5zM575 110h85q58 0 91.5 28.5t33.5 71.5t-33.5 71.5t-91.5 28.5h-85v-200z" />
    <glyph glyph-name="afii10060" unicode="&#x40b;" horiz-adv-x="675" 
d="M420 680v-110h-160v-170q60 30 130 30q102 0 168.5 -69.5t66.5 -180.5v-180h-120v180q0 63 -35.5 101.5t-89.5 38.5q-29 0 -59 -7.5t-45 -14.5l-16 -8v-290h-120v570h-130v110h410z" />
    <glyph glyph-name="afii10061" unicode="&#x40c;" horiz-adv-x="600" 
d="M205 680v-680h-120v680h120zM560 680l-205 -320l225 -360h-130l-220 360l200 320h130zM440 840l-150 -65l-30 65l140 85z" />
    <glyph glyph-name="afii10062" unicode="&#x40e;" horiz-adv-x="570" 
d="M425 680h130l-270 -680h-130l70 180l-210 500h130l140 -335h10zM290 850q27 0 46 20t19 50h80q0 -63 -42.5 -106.5t-102.5 -43.5t-102.5 43.5t-42.5 106.5h80q0 -30 19 -50t46 -20z" />
    <glyph glyph-name="afii10145" unicode="&#x40f;" horiz-adv-x="680" 
d="M280 -120v120h-195v680h120v-570h270v570h120v-680h-195v-120h-120z" />
    <glyph glyph-name="afii10017" unicode="&#x410;" horiz-adv-x="640" 
d="M325 720l295 -720h-130l-40 100h-261l-39 -100h-130l295 720h10zM315 420l-80 -210h170l-80 210h-10z" />
    <glyph glyph-name="afii10018" unicode="&#x411;" horiz-adv-x="600" 
d="M205 110h95q55 0 90 32t35 78t-35 78t-90 32h-95v-220zM550 220q0 -88 -72 -154t-178 -66h-215v680h410v-110h-290v-130h95q106 0 178 -66t72 -154z" />
    <glyph glyph-name="afii10019" unicode="&#x412;" horiz-adv-x="600" 
d="M85 0v680h215q101 0 160.5 -49.5t59.5 -120.5q0 -31 -11.5 -56t-27.5 -39t-32 -24t-27 -13l-12 -3v-10q6 -1 16 -3.5t36 -14.5t46 -29t36 -49.5t16 -73.5q0 -79 -69 -137t-181 -58h-225zM205 110h105q55 0 87.5 28t32.5 72t-32.5 72t-87.5 28h-105v-200zM205 420h95
q43 0 69 22t26 53t-26 53t-69 22h-95v-150z" />
    <glyph glyph-name="afii10020" unicode="&#x413;" horiz-adv-x="480" 
d="M460 570h-255v-570h-120v680h375v-110z" />
    <glyph glyph-name="afii10021" unicode="&#x414;" horiz-adv-x="680" 
d="M15 110h20q3 2 8 6t18.5 18.5t24 31.5t21 45t13.5 59l40 410h405v-570h75v-230h-120v120h-385v-120h-120v230zM445 570h-175l-30 -300q-5 -49 -22.5 -86.5t-32.5 -50.5l-15 -13v-10h275v460z" />
    <glyph glyph-name="afii10022" unicode="&#x415;" 
d="M85 0v680h395v-110h-275v-170h195v-110h-195v-180h285v-110h-405z" />
    <glyph glyph-name="afii10024" unicode="&#x416;" horiz-adv-x="910" 
d="M515 680v-680h-120v680h120zM870 680l-205 -320l225 -360h-130l-220 360l200 320h130zM245 360l-205 320h130l200 -320l-220 -360h-130z" />
    <glyph glyph-name="afii10025" unicode="&#x417;" horiz-adv-x="540" 
d="M180 420h60q44 0 72 25t28 60t-28 60t-72 25q-27 0 -54.5 -17.5t-41.5 -34.5l-14 -18l-90 65q3 5 8.5 12.5t25 27.5t42 35t59 27.5t75.5 12.5q87 0 151 -57t64 -123q0 -36 -11 -65t-26 -44t-30.5 -25t-26.5 -13l-11 -3v-10q5 -1 14 -4t31.5 -16t39.5 -30.5t31 -50.5
t14 -74q0 -81 -68 -143t-167 -62q-48 0 -90.5 14.5t-69.5 35t-47.5 41t-29.5 35.5l-8 14l90 65q2 -4 6.5 -10.5t18.5 -22.5t30 -28.5t40.5 -23t49.5 -10.5q52 0 86 32t34 78t-34 78t-86 32h-65v110z" />
    <glyph glyph-name="afii10026" unicode="&#x418;" horiz-adv-x="680" 
d="M205 280h10l360 420h20v-700h-120v400h-10l-360 -420h-20v700h120v-400z" />
    <glyph glyph-name="afii10027" unicode="&#x419;" horiz-adv-x="680" 
d="M205 280h10l360 420h20v-700h-120v400h-10l-360 -420h-20v700h120v-400zM340 864q27 0 46 20t19 50h80q0 -63 -42.5 -106.5t-102.5 -43.5t-102.5 43.5t-42.5 106.5h80q0 -30 19 -50t46 -20z" />
    <glyph glyph-name="afii10028" unicode="&#x41a;" horiz-adv-x="600" 
d="M205 680v-680h-120v680h120zM560 680l-205 -320l225 -360h-130l-220 360l200 320h130z" />
    <glyph glyph-name="afii10029" unicode="&#x41b;" horiz-adv-x="685" 
d="M0 0l15 110q20 -10 40 -10q27 0 49 25t26 65l50 490h420v-680h-120v570h-190l-40 -380q-11 -103 -59.5 -156.5t-125.5 -53.5q-16 0 -32 5t-25 10z" />
    <glyph glyph-name="afii10030" unicode="&#x41c;" horiz-adv-x="820" 
d="M410 150l-195 240h-10v-390h-120v700h20l305 -375l305 375h20v-700h-120v390h-10z" />
    <glyph glyph-name="afii10031" unicode="&#x41d;" horiz-adv-x="680" 
d="M475 0v260h-270v-260h-120v680h120v-310h270v310h120v-680h-120z" />
    <glyph glyph-name="afii10032" unicode="&#x41e;" horiz-adv-x="790" 
d="M40 340q0 150 104 255t251 105t251 -105t104 -255t-104 -255t-251 -105t-251 105t-104 255zM625 340q0 103 -69 176.5t-161 73.5t-161 -73.5t-69 -176.5t69 -176.5t161 -73.5t161 73.5t69 176.5z" />
    <glyph glyph-name="afii10033" unicode="&#x41f;" horiz-adv-x="680" 
d="M85 680h510v-680h-120v570h-270v-570h-120v680z" />
    <glyph glyph-name="afii10034" unicode="&#x420;" horiz-adv-x="585" 
d="M205 310h65q66 0 108 38t42 92t-42 92t-108 38h-65v-260zM545 440q0 -100 -77 -170t-198 -70h-65v-200h-120v680h185q121 0 198 -70t77 -170z" />
    <glyph glyph-name="afii10035" unicode="&#x421;" horiz-adv-x="710" 
d="M395 700q56 0 106.5 -16.5t82.5 -40t56 -47t34 -40.5l11 -16l-105 -60q-3 4 -8 11.5t-22.5 26.5t-37.5 33.5t-51.5 26.5t-65.5 12q-92 0 -161 -73.5t-69 -176.5t69 -176.5t161 -73.5q36 0 69.5 13t55.5 31t38.5 36.5t23.5 31.5l8 13l105 -60q-4 -7 -11 -19t-34 -42
t-58.5 -53t-84.5 -42t-112 -19q-147 0 -251 105t-104 255t104 255t251 105z" />
    <glyph glyph-name="afii10036" unicode="&#x422;" horiz-adv-x="520" 
d="M495 570h-175v-570h-120v570h-175v110h470v-110z" />
    <glyph glyph-name="afii10037" unicode="&#x423;" horiz-adv-x="570" 
d="M425 680h130l-270 -680h-130l70 180l-210 500h130l140 -335h10z" />
    <glyph glyph-name="afii10038" unicode="&#x424;" horiz-adv-x="840" 
d="M480 45v-85h-120v85q-144 7 -232 90t-88 205t88 205t232 90v85h120v-85q144 -7 232 -90t88 -205t-88 -205t-232 -90zM360 155v370q-85 -4 -140 -56.5t-55 -128.5t55 -128.5t140 -56.5zM480 525v-370q85 4 140 56.5t55 128.5t-55 128.5t-140 56.5z" />
    <glyph glyph-name="afii10039" unicode="&#x425;" horiz-adv-x="610" 
d="M455 0l-145 255h-10l-145 -255h-135l205 355l-180 325h130l125 -225h10l125 225h130l-180 -325l205 -355h-135z" />
    <glyph glyph-name="afii10040" unicode="&#x426;" horiz-adv-x="685" 
d="M525 0h-440v680h120v-570h245v570h120v-570h75v-230h-120v120z" />
    <glyph glyph-name="afii10041" unicode="&#x427;" horiz-adv-x="640" 
d="M435 0v245q-60 -30 -130 -30q-102 0 -168.5 69.5t-66.5 180.5v215h120v-215q0 -63 35.5 -101.5t89.5 -38.5q27 0 57 7.5t46 15.5l17 7v325h120v-680h-120z" />
    <glyph glyph-name="afii10042" unicode="&#x428;" horiz-adv-x="942" 
d="M856 0h-770v680h120v-570h205v570h120v-570h205v570h120v-680z" />
    <glyph glyph-name="afii10043" unicode="&#x429;" horiz-adv-x="970" 
d="M810 0h-725v680h120v-570h205v570h120v-570h205v570h120v-570h75v-230h-120v120z" />
    <glyph glyph-name="afii10044" unicode="&#x42a;" horiz-adv-x="640" 
d="M590 230q0 -92 -75 -161t-185 -69h-185v570h-130v110h250v-220h65q110 0 185 -69t75 -161zM265 110h65q59 0 97 35t38 85t-38 85t-97 35h-65v-240z" />
    <glyph glyph-name="afii10045" unicode="&#x42b;" horiz-adv-x="840" 
d="M635 0v680h120v-680h-120zM205 110h65q59 0 97 35t38 85t-38 85t-97 35h-65v-240zM530 230q0 -92 -75 -161t-185 -69h-185v680h120v-220h65q110 0 185 -69t75 -161z" />
    <glyph glyph-name="afii10046" unicode="&#x42c;" horiz-adv-x="580" 
d="M205 110h75q59 0 97 35t38 85t-38 85t-97 35h-75v-240zM540 230q0 -92 -75 -161t-185 -69h-195v680h120v-220h75q110 0 185 -69t75 -161z" />
    <glyph glyph-name="afii10047" unicode="&#x42d;" horiz-adv-x="710" 
d="M315 700q147 0 251 -105t104 -255t-104 -255t-251 -105q-59 0 -111.5 18t-85.5 43.5t-57.5 51.5t-34.5 44l-11 18l105 60q3 -5 8 -13.5t23.5 -30t39 -38t54.5 -30t70 -13.5q84 0 150.5 60.5t74.5 134.5h-250v110h250q-8 74 -74.5 134.5t-150.5 60.5q-34 0 -65 -11.5
t-52 -27.5t-37 -32t-23 -27l-8 -12l-105 60q4 7 11 17.5t33.5 38t57 48.5t81.5 38.5t107 17.5z" />
    <glyph glyph-name="afii10048" unicode="&#x42e;" horiz-adv-x="985" 
d="M625 -20q-119 0 -207.5 85.5t-107.5 214.5h-105v-280h-120v680h120v-290h105q19 135 107 222.5t208 87.5q130 0 225 -103t95 -257t-95 -257t-225 -103zM625 590q-79 0 -137 -69t-58 -181t58 -181t137 -69t137 69t58 181t-58 181t-137 69z" />
    <glyph glyph-name="afii10049" unicode="&#x42f;" horiz-adv-x="640" 
d="M180 270v10q0 -1 -11.5 6t-27.5 21.5t-32 34.5t-27.5 51.5t-11.5 66.5q0 88 72 154t178 66h235v-680h-120v240h-140l-135 -240h-130zM320 350h115v220h-115q-55 0 -90 -32t-35 -78t35 -78t90 -32z" />
    <glyph glyph-name="afii10065" unicode="&#x430;" horiz-adv-x="465" 
d="M300 155q-45 5 -105 5q-25 0 -40 -12t-15 -28t16.5 -28t48.5 -12q21 0 38.5 7.5t27.5 19t17 22.5t10 19zM215 430q82 0 138.5 -55.5t56.5 -134.5v-240h-110v40h-10q-1 -2 -4 -6.5t-13.5 -14.5t-22.5 -18t-32.5 -14.5t-42.5 -6.5q-67 0 -108.5 39.5t-41.5 100.5
q0 62 46 101t124 39q27 0 53 -5t39 -10l13 -5q0 37 -25.5 63.5t-59.5 26.5q-22 0 -43.5 -9t-31.5 -17l-10 -9l-65 75q6 7 17 17t50 26.5t83 16.5z" />
    <glyph glyph-name="afii10066" unicode="&#x431;" horiz-adv-x="505" 
d="M260 310q-41 0 -70.5 -34.5t-29.5 -80.5q0 -47 30.5 -81t69.5 -34t69.5 34t30.5 81t-30.5 81t-69.5 34zM50 205v205q0 94 62 163.5t148 85.5l170 31l15 -100l-170 -31q-48 -9 -81.5 -48.5t-33.5 -100.5v-50h10q4 6 12 14t36.5 22t61.5 14q73 0 134 -65t61 -150
q0 -86 -64.5 -150.5t-150.5 -64.5q-84 0 -147 66t-63 159z" />
    <glyph glyph-name="afii10067" unicode="&#x432;" horiz-adv-x="460" 
d="M65 0v410h190q68 0 109 -33t41 -77q0 -27 -16.5 -45.5t-32.5 -24.5l-16 -5v-10l10 -2.5t21.5 -8t27.5 -16t21.5 -28t9.5 -40.5q0 -51 -41.5 -85.5t-113.5 -34.5h-210zM175 100h100q18 0 29 10t11 25t-10.5 25t-28.5 10h-101v-70zM175 260h80q35 0 35 25t-35 25h-80v-50z
" />
    <glyph glyph-name="afii10068" unicode="&#x433;" horiz-adv-x="385" 
d="M65 0v410h300v-100h-190v-310h-110z" />
    <glyph glyph-name="afii10069" unicode="&#x434;" horiz-adv-x="500" 
d="M10 100h25q40 40 45 95l20 215h315v-310h55v-200h-110v100h-240v-100h-110v200zM150 110v-10h155v210h-105l-10 -115q-2 -24 -12 -45.5t-19 -30.5z" />
    <glyph glyph-name="afii10070" unicode="&#x435;" horiz-adv-x="505" 
d="M430 165h-275q12 -36 40.5 -60.5t64.5 -24.5q31 0 56 15t34 30l10 15l95 -50q-2 -4 -6.5 -11.5t-21.5 -26.5t-37.5 -33.5t-55.5 -26.5t-74 -12q-94 0 -159.5 65.5t-65.5 159.5t65.5 159.5t159.5 65.5q90 0 152.5 -65t62.5 -155zM260 330q-67 0 -100 -75h200
q-33 75 -100 75z" />
    <glyph glyph-name="afii10072" unicode="&#x436;" horiz-adv-x="690" 
d="M660 410l-125 -200l140 -210h-120l-135 210l120 200h120zM290 0v410h110v-410h-110zM155 210l-125 200h120l120 -200l-135 -210h-120z" />
    <glyph glyph-name="afii10073" unicode="&#x437;" horiz-adv-x="400" 
d="M185 170h-45v90h45q50 0 50 35t-50 35q-22 0 -42 -10t-29 -20l-9 -10l-75 70q2 3 6.5 7.5t20 16.5t33 21.5t46 17t59.5 7.5q68 0 114 -38.5t46 -86.5q0 -29 -18.5 -50t-37.5 -28l-19 -7v-10q3 -1 9 -2.5t20.5 -9t26 -17.5t20.5 -27.5t9 -38.5q0 -55 -47 -95t-123 -40
q-34 0 -65 8t-52 20t-37 24t-23 20l-8 8l75 70q4 -6 12.5 -14t34.5 -22t53 -14q29 0 44.5 12.5t15.5 32.5t-15.5 32.5t-44.5 12.5z" />
    <glyph glyph-name="afii10074" unicode="&#x438;" horiz-adv-x="510" 
d="M175 205h10l230 215h30v-420h-110v205h-10l-230 -215h-30v420h110v-205z" />
    <glyph glyph-name="afii10075" unicode="&#x439;" horiz-adv-x="510" 
d="M175 205h10l230 215h30v-420h-110v205h-10l-230 -215h-30v420h110v-205zM260 590q19 0 34.5 16.5t15.5 38.5h80q0 -60 -36.5 -97.5t-93.5 -37.5t-93.5 37.5t-36.5 97.5h80q0 -22 15.5 -38.5t34.5 -16.5z" />
    <glyph glyph-name="afii10076" unicode="&#x43a;" horiz-adv-x="465" 
d="M175 410v-410h-110v410h110zM435 410l-125 -200l140 -210h-120l-135 210l120 200h120z" />
    <glyph glyph-name="afii10077" unicode="&#x43b;" horiz-adv-x="495" 
d="M430 0h-110v310h-105l-15 -145q-18 -185 -150 -185q-13 0 -25.5 2.5t-18.5 5.5l-6 2l15 95q13 -5 25 -5q41 0 50 85l25 245h315v-410z" />
    <glyph glyph-name="afii10078" unicode="&#x43c;" horiz-adv-x="590" 
d="M295 70l-110 115h-10v-185h-110v420h30l200 -210l200 210h30v-420h-110v185h-10z" />
    <glyph glyph-name="afii10079" unicode="&#x43d;" horiz-adv-x="510" 
d="M445 410v-410h-110v145h-160v-145h-110v410h110v-165h160v165h110z" />
    <glyph glyph-name="afii10080" unicode="&#x43e;" horiz-adv-x="520" 
d="M370 205q0 51 -34 88t-76 37t-76 -37t-34 -88t34 -88t76 -37t76 37t34 88zM35 205q0 94 65.5 159.5t159.5 65.5t159.5 -65.5t65.5 -159.5t-65.5 -159.5t-159.5 -65.5t-159.5 65.5t-65.5 159.5z" />
    <glyph glyph-name="afii10081" unicode="&#x43f;" horiz-adv-x="510" 
d="M65 410h380v-410h-110v310h-160v-310h-110v410z" />
    <glyph glyph-name="afii10082" unicode="&#x440;" horiz-adv-x="535" 
d="M175 225v-40q0 -41 32 -73t73 -32q43 0 74 35t31 90t-31 90t-74 35q-41 0 -73 -32t-32 -73zM175 410v-40h10q4 7 12.5 17t40.5 26.5t72 16.5q74 0 132 -65t58 -160t-58 -160t-132 -65q-25 0 -47 6t-36 15t-24 18t-14 15l-4 6h-10v-320h-110v690h110z" />
    <glyph glyph-name="afii10083" unicode="&#x441;" horiz-adv-x="475" 
d="M260 80q31 0 56 17.5t34 34.5l10 18l95 -50q-2 -5 -6.5 -13t-21.5 -28.5t-37.5 -36.5t-55.5 -29t-74 -13q-94 0 -159.5 65.5t-65.5 159.5t65.5 159.5t159.5 65.5q38 0 71.5 -11.5t54 -27.5t36 -32t22.5 -27l6 -12l-95 -50q-1 2 -3.5 6.5t-11 14.5t-19 18t-27 14.5
t-34.5 6.5q-42 0 -76 -37t-34 -88t34 -88t76 -37z" />
    <glyph glyph-name="afii10084" unicode="&#x442;" horiz-adv-x="410" 
d="M20 310v100h370v-100h-130v-310h-110v310h-130z" />
    <glyph glyph-name="afii10085" unicode="&#x443;" horiz-adv-x="450" 
d="M320 410h120l-265 -690h-120l110 280l-155 410h120l90 -250h10z" />
    <glyph glyph-name="afii10086" unicode="&#x444;" horiz-adv-x="590" 
d="M240 421v259h110v-259q91 -12 150.5 -73t59.5 -143t-60 -143t-150 -72v-270h-110v270q-90 11 -150 72t-60 143t59.5 143t150.5 73zM240 90v230q-39 -4 -67 -36t-28 -79t28 -79t67 -36zM350 320v-230q39 4 67 36t28 79t-28 79t-67 36z" />
    <glyph glyph-name="afii10087" unicode="&#x445;" horiz-adv-x="450" 
d="M230 285l65 125h125l-115 -200l130 -210h-125l-80 135h-10l-80 -135h-125l130 210l-115 200h125l65 -125h10z" />
    <glyph glyph-name="afii10088" unicode="&#x446;" horiz-adv-x="520" 
d="M380 0h-315v410h110v-310h150v310h110v-310h55v-200h-110v100z" />
    <glyph glyph-name="afii10089" unicode="&#x447;" horiz-adv-x="480" 
d="M305 0v135q-50 -20 -105 -20q-69 0 -112 46t-43 124v125h110v-125q0 -30 21 -50t54 -20q16 0 34.5 5t29.5 10l11 5v175h110v-410h-110z" />
    <glyph glyph-name="afii10090" unicode="&#x448;" horiz-adv-x="700" 
d="M635 0h-570v410h110v-310h120v310h110v-310h120v310h110v-410z" />
    <glyph glyph-name="afii10091" unicode="&#x449;" horiz-adv-x="720" 
d="M690 -100h-110v100h-515v410h110v-310h120v310h110v-310h120v310h110v-310h55v-200z" />
    <glyph glyph-name="afii10092" unicode="&#x44a;" horiz-adv-x="465" 
d="M435 145q0 -62 -46.5 -103.5t-123.5 -41.5h-165v310h-90v100h200v-120h55q77 0 123.5 -41.5t46.5 -103.5zM210 100h55q25 0 40 13t15 32t-15 32t-40 13h-55v-90z" />
    <glyph glyph-name="afii10093" unicode="&#x44b;" horiz-adv-x="630" 
d="M565 410v-410h-110v410h110zM175 100h55q25 0 40 13t15 32t-15 32t-40 13h-55v-90zM400 145q0 -62 -46.5 -103.5t-123.5 -41.5h-165v410h110v-120h55q77 0 123.5 -41.5t46.5 -103.5z" />
    <glyph glyph-name="afii10094" unicode="&#x44c;" horiz-adv-x="440" 
d="M175 100h65q25 0 40 13t15 32t-15 32t-40 13h-65v-90zM410 145q0 -62 -46.5 -103.5t-123.5 -41.5h-175v410h110v-120h65q77 0 123.5 -41.5t46.5 -103.5z" />
    <glyph glyph-name="afii10095" unicode="&#x44d;" horiz-adv-x="475" 
d="M190 160v90h125q-8 32 -36 56t-64 24q-29 0 -53 -15t-34 -30l-9 -15l-94 50q2 4 6.5 11.5t21 26.5t36.5 33.5t54 26.5t72 12q94 0 159.5 -65.5t65.5 -159.5t-65.5 -159.5t-159.5 -65.5q-39 0 -73.5 12.5t-56 30t-37 35t-22.5 30.5l-6 12l95 50q1 -3 3.5 -7.5t11.5 -16.5
t19.5 -21.5t28 -17t37.5 -7.5q36 0 64 24t36 56h-125z" />
    <glyph glyph-name="afii10096" unicode="&#x44e;" horiz-adv-x="690" 
d="M440 -20q-80 0 -137 50.5t-73 124.5h-55v-155h-110v410h110v-155h55q16 74 73 124.5t137 50.5q91 0 153 -64t62 -161t-62 -161t-153 -64zM440 330q-40 0 -70 -35.5t-30 -89.5t30.5 -89.5t69.5 -35.5t69.5 35.5t30.5 89.5t-30 89.5t-70 35.5z" />
    <glyph glyph-name="afii10097" unicode="&#x44f;" horiz-adv-x="470" 
d="M45 270q0 58 46 99t119 41h195v-410h-110v130h-80l-75 -130h-120l90 150v10q-7 4 -18 12t-29 36.5t-18 61.5zM295 310h-85q-22 0 -36 -12t-14 -28t14 -28t36 -12h85v80z" />
    <glyph glyph-name="afii10071" unicode="&#x451;" horiz-adv-x="505" 
d="M430 165h-275q12 -36 40.5 -60.5t64.5 -24.5q31 0 56 15t34 30l10 15l95 -50q-2 -4 -6.5 -11.5t-21.5 -26.5t-37.5 -33.5t-55.5 -26.5t-74 -12q-94 0 -159.5 65.5t-65.5 159.5t65.5 159.5t159.5 65.5q90 0 152.5 -65t62.5 -155zM260 330q-67 0 -100 -75h200
q-33 75 -100 75zM235 600q0 -22 -18.5 -41t-41.5 -19t-41.5 19t-18.5 41t18.5 41t41.5 19t41.5 -19t18.5 -41zM415 600q0 -22 -18.5 -41t-41.5 -19t-41.5 19t-18.5 41t18.5 41t41.5 19t41.5 -19t18.5 -41z" />
    <glyph glyph-name="afii10099" unicode="&#x452;" horiz-adv-x="535" 
d="M15 480v100h65v100h110v-100h105v-100h-105v-130h10q1 2 4 6.5t13.5 14.5t22.5 18t32.5 14.5t42.5 6.5q65 0 115 -53t50 -127v-145q0 -70 -45.5 -117.5t-109.5 -47.5q-24 0 -46.5 6t-32.5 12l-11 7l35 95q20 -20 45 -20q23 0 39 18t16 47v145q0 34 -24 57t-61 23t-66 -27
t-29 -58v-225h-110v480h-65z" />
    <glyph glyph-name="afii10100" unicode="&#x453;" horiz-adv-x="385" 
d="M335 555l-150 -65l-30 65l140 85zM65 0v410h300v-100h-190v-310h-110z" />
    <glyph glyph-name="afii10101" unicode="&#x454;" horiz-adv-x="475" 
d="M285 250v-90h-125q12 -36 38 -58t62 -22q31 0 56 17.5t34 34.5l10 18l95 -50q-2 -5 -6.5 -13t-21.5 -28.5t-37.5 -36.5t-55.5 -29t-74 -13q-94 0 -159.5 66t-65.5 159q0 94 65.5 159.5t159.5 65.5q38 0 71.5 -11.5t54.5 -27.5t36 -32t22 -27l6 -12l-94 -50q-1 2 -3.5 6.5
t-11.5 14.5t-19 18t-27 14.5t-35 6.5q-36 0 -62 -22t-38 -58h125z" />
    <glyph glyph-name="afii10102" unicode="&#x455;" horiz-adv-x="400" 
d="M190 80q29 0 44.5 12.5t15.5 32.5q0 15 -21.5 24.5t-52.5 18.5t-62 22t-52.5 42.5t-21.5 72.5q0 48 46 86.5t114 38.5q49 0 90 -17.5t58 -34.5l17 -18l-75 -70q-3 4 -9.5 11t-27.5 18t-43 11q-50 0 -50 -35q0 -15 21.5 -24.5t52.5 -18.5t62 -22t52.5 -42.5t21.5 -72.5
q0 -55 -47 -95t-123 -40q-34 0 -65 8t-52 20t-37 24t-24 20l-7 8l75 70q4 -6 12.5 -14t34.5 -22t53 -14z" />
    <glyph glyph-name="afii10103" unicode="&#x456;" horiz-adv-x="230" 
d="M60 0v410h110v-410h-110zM180 615q0 -26 -19.5 -45.5t-45.5 -19.5t-45.5 19.5t-19.5 45.5t19.5 45.5t45.5 19.5t45.5 -19.5t19.5 -45.5z" />
    <glyph glyph-name="afii10104" unicode="&#x457;" horiz-adv-x="240" 
d="M65 0v410h110v-410h-110zM90 610q0 -22 -19 -41t-41 -19t-41 19t-19 41t19 41t41 19t41 -19t19 -41zM270 610q0 -22 -19 -41t-41 -19t-41 19t-19 41t19 41t41 19t41 -19t19 -41z" />
    <glyph glyph-name="afii10105" unicode="&#x458;" horiz-adv-x="235" 
d="M175 410v-535q0 -70 -45.5 -117.5t-109.5 -47.5q-24 0 -46.5 6t-33.5 12l-10 7l35 95q20 -20 45 -20q23 0 39 18t16 47v535h110zM185 615q0 -26 -19.5 -45.5t-45.5 -19.5t-45.5 19.5t-19.5 45.5t19.5 45.5t45.5 19.5t45.5 -19.5t19.5 -45.5z" />
    <glyph glyph-name="afii10106" unicode="&#x459;" horiz-adv-x="695" 
d="M665 145q0 -62 -46.5 -103.5t-123.5 -41.5h-175v310h-105l-15 -145q-18 -185 -150 -185q-13 0 -25.5 2.5t-18.5 5.5l-6 2l15 95q13 -5 25 -5q41 0 50 85l25 245h315v-120h65q77 0 123.5 -41.5t46.5 -103.5zM430 100h65q25 0 40 13t15 32t-15 32t-40 13h-65v-90z" />
    <glyph glyph-name="afii10107" unicode="&#x45a;" horiz-adv-x="705" 
d="M675 135q0 -58 -43.5 -96.5t-116.5 -38.5h-195v170h-145v-170h-110v410h110v-140h145v140h110v-140h85q73 0 116.5 -38.5t43.5 -96.5zM430 100h85q45 0 45 35t-45 35h-85v-70z" />
    <glyph glyph-name="afii10108" unicode="&#x45b;" horiz-adv-x="535" 
d="M15 480v100h65v100h110v-100h105v-100h-105v-130h10q1 2 4 6.5t13.5 14.5t22.5 18t32.5 14.5t42.5 6.5q65 0 115 -53t50 -127v-230h-110v230q0 34 -24 57t-61 23t-66 -27t-29 -58v-225h-110v480h-65z" />
    <glyph glyph-name="afii10109" unicode="&#x45c;" horiz-adv-x="465" 
d="M355 575l-150 -65l-30 65l140 85zM175 410v-410h-110v410h110zM435 410l-125 -200l140 -210h-120l-135 210l120 200h120z" />
    <glyph glyph-name="afii10110" unicode="&#x45e;" horiz-adv-x="450" 
d="M320 410h120l-265 -690h-120l110 280l-155 410h120l90 -250h10zM220 610q19 0 34.5 16.5t15.5 38.5h80q0 -60 -36.5 -97.5t-93.5 -37.5t-93.5 37.5t-36.5 97.5h80q0 -22 15.5 -38.5t34.5 -16.5z" />
    <glyph glyph-name="afii10193" unicode="&#x45f;" horiz-adv-x="506" 
d="M308 0v-100h-110v100h-135v410h110v-310h160v310h110v-410h-135z" />
    <glyph glyph-name="afii10050" unicode="&#x490;" horiz-adv-x="480" 
d="M205 570v-570h-120v680h255v95h120v-205h-255z" />
    <glyph glyph-name="afii10098" unicode="&#x491;" horiz-adv-x="385" 
d="M175 310v-310h-110v410h190v85h110v-185h-190z" />
    <glyph glyph-name="uni1E9E" unicode="&#x1e9e;" horiz-adv-x="625" 
d="M290 -10v110h45q52 0 86 32t34 78t-34 78t-86 32h-40v80l90 160v10h-70q-46 0 -80.5 -37.5t-34.5 -92.5v-440h-120v440q0 105 66.5 172.5t168.5 67.5h215v-80l-100 -175v-10q6 -2 16 -5.5t36 -19.5t46 -36.5t36 -59t16 -84.5q0 -95 -67 -157.5t-178 -62.5h-45z" />
    <glyph glyph-name="endash" unicode="&#x2013;" horiz-adv-x="490" 
d="M460 220h-430v100h430v-100z" />
    <glyph glyph-name="emdash" unicode="&#x2014;" horiz-adv-x="650" 
d="M620 220h-590v100h590v-100z" />
    <glyph glyph-name="quoteleft" unicode="&#x2018;" horiz-adv-x="200" 
d="M35 520q0 11 5 25t10 22l5 8l60 105h45l-40 -105q5 -1 12.5 -4t20 -17t12.5 -34q0 -26 -19.5 -45.5t-45.5 -19.5t-45.5 19.5t-19.5 45.5z" />
    <glyph glyph-name="quoteright" unicode="&#x2019;" horiz-adv-x="202" 
d="M166 615q0 -11 -5 -25t-10 -22l-5 -8l-60 -105h-45l40 105q-5 1 -12.5 4t-20 17t-12.5 34q0 26 19.5 45.5t45.5 19.5t45.5 -19.5t19.5 -45.5z" />
    <glyph glyph-name="quotesinglbase" unicode="&#x201a;" horiz-adv-x="190" 
d="M160 55q0 -11 -5 -25t-10 -22l-5 -8l-60 -105h-45l40 105q-5 1 -12.5 4t-20 17t-12.5 34q0 26 19.5 45.5t45.5 19.5t45.5 -19.5t19.5 -45.5z" />
    <glyph glyph-name="quotedblleft" unicode="&#x201c;" horiz-adv-x="370" 
d="M205 520q0 11 5 25t10 22l5 8l60 105h45l-40 -105q5 -1 12.5 -4t20 -17t12.5 -34q0 -26 -19.5 -45.5t-45.5 -19.5t-45.5 19.5t-19.5 45.5zM35 520q0 11 5 25t10 22l5 8l60 105h45l-40 -105q5 -1 12.5 -4t20 -17t12.5 -34q0 -26 -19.5 -45.5t-45.5 -19.5t-45.5 19.5
t-19.5 45.5z" />
    <glyph glyph-name="quotedblright" unicode="&#x201d;" horiz-adv-x="370" 
d="M165 615q0 -11 -5 -25t-10 -22l-5 -8l-60 -105h-45l40 105q-5 1 -12.5 4t-20 17t-12.5 34q0 26 19.5 45.5t45.5 19.5t45.5 -19.5t19.5 -45.5zM335 615q0 -11 -5 -25t-10 -22l-5 -8l-60 -105h-45l40 105q-5 1 -12.5 4t-20 17t-12.5 34q0 26 19.5 45.5t45.5 19.5
t45.5 -19.5t19.5 -45.5z" />
    <glyph glyph-name="quotedblbase" unicode="&#x201e;" horiz-adv-x="370" 
d="M165 55q0 -11 -5 -25t-10 -22l-5 -8l-60 -105h-45l40 105q-5 1 -12.5 4t-20 17t-12.5 34q0 26 19.5 45.5t45.5 19.5t45.5 -19.5t19.5 -45.5zM335 55q0 -11 -5 -25t-10 -22l-5 -8l-60 -105h-45l40 105q-5 1 -12.5 4t-20 17t-12.5 34q0 26 19.5 45.5t45.5 19.5t45.5 -19.5
t19.5 -45.5z" />
    <glyph glyph-name="dagger" unicode="&#x2020;" horiz-adv-x="470" 
d="M295 360v-640h-120v640l-145 15v80l145 15l15 210h90l15 -210l145 -15v-80z" />
    <glyph glyph-name="daggerdbl" unicode="&#x2021;" horiz-adv-x="470" 
d="M295 370v-340l145 -15v-80l-145 -15l-15 -200h-90l-15 200l-145 15v80l145 15v340l-145 15v80l145 15l15 200h90l15 -200l145 -15v-80z" />
    <glyph glyph-name="bullet" unicode="&#x2022;" horiz-adv-x="310" 
d="M65 255q0 37 26.5 63.5t63.5 26.5t63.5 -26.5t26.5 -63.5t-26.5 -63.5t-63.5 -26.5t-63.5 26.5t-26.5 63.5z" />
    <glyph glyph-name="ellipsis" unicode="&#x2026;" horiz-adv-x="620" 
d="M165 55q0 -26 -19.5 -45.5t-45.5 -19.5t-45.5 19.5t-19.5 45.5t19.5 45.5t45.5 19.5t45.5 -19.5t19.5 -45.5zM375 55q0 -26 -19.5 -45.5t-45.5 -19.5t-45.5 19.5t-19.5 45.5t19.5 45.5t45.5 19.5t45.5 -19.5t19.5 -45.5zM585 55q0 -26 -19.5 -45.5t-45.5 -19.5
t-45.5 19.5t-19.5 45.5t19.5 45.5t45.5 19.5t45.5 -19.5t19.5 -45.5z" />
    <glyph glyph-name="perthousand" unicode="&#x2030;" horiz-adv-x="1045" 
d="M480 680h125l-370 -680h-125zM480 680h125l-370 -680h-125zM330 545q0 -64 -45.5 -109.5t-109.5 -45.5t-109.5 45.5t-45.5 109.5t45.5 109.5t109.5 45.5t109.5 -45.5t45.5 -109.5zM230 545q0 29 -16 47t-39 18t-39 -18t-16 -47t16 -47t39 -18t39 18t16 47zM685 135
q0 -64 -45.5 -109.5t-109.5 -45.5t-109.5 45.5t-45.5 109.5t45.5 109.5t109.5 45.5t109.5 -45.5t45.5 -109.5zM585 135q0 29 -16 47t-39 18t-39 -18t-16 -47t16 -47t39 -18t39 18t16 47zM1025 135q0 -64 -45.5 -109.5t-109.5 -45.5t-109.5 45.5t-45.5 109.5t45.5 109.5
t109.5 45.5t109.5 -45.5t45.5 -109.5zM925 135q0 29 -16 47t-39 18t-39 -18t-16 -47t16 -47t39 -18t39 18t16 47z" />
    <glyph glyph-name="guilsinglleft" unicode="&#x2039;" horiz-adv-x="315" 
d="M160 205v-10l115 -120l-70 -75l-185 200l185 200l70 -75z" />
    <glyph glyph-name="guilsinglright" unicode="&#x203a;" horiz-adv-x="315" 
d="M155 195v10l-115 120l70 75l185 -200l-185 -200l-70 75z" />
    <glyph glyph-name="fraction" unicode="&#x2044;" horiz-adv-x="535" 
d="M390 680h125l-370 -680h-125z" />
    <glyph glyph-name="foursuperior" unicode="&#x2074;" horiz-adv-x="310" 
d="M245 525h35v-75h-35v-40h-90v40h-125v60l150 190h65v-175zM155 525v35h-5l-25 -30v-5h30z" />
    <glyph glyph-name="Euro" unicode="&#x20ac;" horiz-adv-x="750" 
d="M450 370h-240v-60h240v-90h-215q26 -52 78.5 -91t121.5 -39q36 0 69.5 13t55.5 31t38.5 36.5t23.5 31.5l8 13l105 -60q-4 -7 -11 -19t-34 -42t-58.5 -53t-84.5 -42t-112 -19q-120 0 -209 70.5t-126 169.5h-75v90h60v60h-60v90h75q37 99 126 169.5t209 70.5
q56 0 106.5 -16.5t82.5 -40t56 -47t34 -40.5l11 -16l-105 -60q-3 4 -8 11.5t-22.5 26.5t-37.5 33.5t-51.5 26.5t-65.5 12q-69 0 -121.5 -39t-78.5 -91h215v-90z" />
    <glyph glyph-name="uni20B4" unicode="&#x20b4;" horiz-adv-x="570" 
d="M40 310h480v-100h-325q-5 -10 -5 -25q0 -41 32 -68t83 -27q39 0 72.5 20t48.5 40l14 20l90 -65q-3 -5 -8.5 -13.5t-26 -30t-45 -38t-66.5 -30t-89 -13.5q-98 0 -164 56.5t-66 133.5l5 40h-30v100zM520 370h-480v100h315q10 15 10 35q0 35 -28 60t-72 25q-17 0 -35 -6.5
t-31 -16t-23 -19.5l-16 -16l-5 -7l-90 65q3 4 8.5 11.5t25.5 26.5t42.5 33.5t59 26.5t74.5 12q91 0 153 -55t62 -125q0 -13 -2.5 -25.5t-4.5 -18.5t-3 -6h40v-100z" />
    <glyph glyph-name="uni20BD" unicode="&#x20bd;" horiz-adv-x="600" 
d="M40 370h65v310h205q109 0 179.5 -62.5t70.5 -147.5q0 -82 -69 -141t-181 -59h-85v-50h225v-100h-225v-120h-120v120h-65v100h65v50h-65v100zM310 570h-85v-200h85q58 0 91.5 28.5t33.5 71.5t-33.5 71.5t-91.5 28.5z" />
    <glyph glyph-name="afii61352" unicode="&#x2116;" horiz-adv-x="1005" 
d="M955 220h-270v100h270v-100zM465 280h10v400h120v-700h-20l-360 420h-10v-400h-120v700h20zM975 545q0 -64 -45.5 -109.5t-109.5 -45.5t-109.5 45.5t-45.5 109.5t45.5 109.5t109.5 45.5t109.5 -45.5t45.5 -109.5zM875 545q0 29 -16 47t-39 18t-39 -18t-16 -47t16 -47
t39 -18t39 18t16 47z" />
    <glyph glyph-name="trademark" unicode="&#x2122;" horiz-adv-x="675" 
d="M470 435l-65 65h-5v-100h-90v290h20l140 -140l140 140h20v-290h-90v100h-5zM270 680v-80h-80v-200h-90v200h-80v80h250z" />
    <glyph glyph-name="minus" unicode="&#x2212;" horiz-adv-x="400" 
d="M370 220h-340v100h340v-100z" />
    <glyph glyph-name="commaaccent" unicode="&#xf6c3;" horiz-adv-x="180" 
d="M150 -120q0 -11 -4 -23.5t-8 -19.5l-3 -7l-60 -100h-40l35 100q-4 1 -11 4t-18 15.5t-11 30.5q0 22 19 41t41 19t41 -19t19 -41z" />
    <glyph glyph-name="cyrBreve" unicode="&#xf6d1;" horiz-adv-x="350" 
d="M175 870q27 0 46 20t19 50h80q0 -63 -42.5 -106.5t-102.5 -43.5t-102.5 43.5t-42.5 106.5h80q0 -30 19 -50t46 -20z" />
    <glyph glyph-name="cyrbreve" unicode="&#xf6d4;" horiz-adv-x="320" 
d="M160 575q19 0 34.5 16.5t15.5 38.5h80q0 -60 -36.5 -97.5t-93.5 -37.5t-93.5 37.5t-36.5 97.5h80q0 -22 15.5 -38.5t34.5 -16.5z" />
    <glyph glyph-name="Germandbls" horiz-adv-x="625" 
d="M290 -10v110h45q52 0 86 32t34 78t-34 78t-86 32h-40v80l90 160v10h-70q-46 0 -80.5 -37.5t-34.5 -92.5v-440h-120v440q0 105 66.5 172.5t168.5 67.5h215v-80l-100 -175v-10q6 -2 16 -5.5t36 -19.5t46 -36.5t36 -59t16 -84.5q0 -95 -67 -157.5t-178 -62.5h-45z" />
    <glyph glyph-name="foundryicon" horiz-adv-x="1230" 
d="M100 -110v920h1030v-920h-1030zM1110 -90v880h-990v-880h990zM635 610h110q36 0 58 -19t22 -46t-22 -46t-58 -19h-55v-80h-55v210zM635 300h110q36 0 58 -19t22 -46t-22 -46t-58 -19h-55v-80h-55v210zM495 170l-75 130h60l40 -75h5l40 75h65l-80 -130v-80h-55v80z
M495 480l-75 130h60l40 -75h5l40 75h65l-80 -130v-80h-55v80zM300 255h-65v45h165l25 -45h-70v-165h-55v165zM300 565h-65v45h165l25 -45h-70v-165h-55v165zM790 400v65q20 4 38 21t22 39h80v-45h-85v-35h120v-45h-175zM790 90v65q20 4 38 21t22 39h80v-45h-85v-35h120v-45
h-175zM810 300h155v-45h-115q-9 37 -40 45zM810 610h155v-45h-115q-9 37 -40 45zM765 545q0 7 -6.5 13.5t-13.5 6.5h-55v-40h55q8 0 14 6t6 14zM765 235q0 7 -6.5 13.5t-13.5 6.5h-55v-40h55q8 0 14 6t6 14z" />
    </font>
</defs>
</svg>
